<svg version="1.1" viewBox="0.0 0.0 800.0 600.0" fill="none" stroke="none" stroke-linecap="square" stroke-miterlimit="10" xmlns:xlink="http://www.w3.org/1999/xlink" xmlns="http://www.w3.org/2000/svg"><clipPath id="p.0"><path d="m0 0l800.0 0l0 600.0l-800.0 0l0 -600.0z" clip-rule="nonzero"/></clipPath><g clip-path="url(#p.0)"><path fill="#000000" fill-opacity="0.0" d="m0 0l800.0 0l0 600.0l-800.0 0z" fill-rule="evenodd"/><path fill="#000000" fill-opacity="0.0" d="m45.24803 285.0l653.98425 0" fill-rule="evenodd"/><path stroke="#000000" stroke-width="2.0" stroke-linejoin="round" stroke-linecap="butt" d="m45.24803 285.0l653.98425 0" fill-rule="evenodd"/><path fill="#000000" fill-opacity="0.0" d="m149.24803 85.50394l0 398.99213" fill-rule="evenodd"/><path stroke="#000000" stroke-width="2.0" stroke-linejoin="round" stroke-linecap="butt" d="m149.24803 85.50394l0 398.99213" fill-rule="evenodd"/><path fill="#000000" fill-opacity="0.0" d="m303.24802 83.50394l0 402.99213" fill-rule="evenodd"/><path stroke="#000000" stroke-width="2.0" stroke-linejoin="round" stroke-linecap="butt" stroke-dasharray="2.0,6.0" d="m303.24802 83.50394l0 402.99213" fill-rule="evenodd"/><path fill="#000000" fill-opacity="0.0" d="m518.24805 83.50394l0 402.99213" fill-rule="evenodd"/><path stroke="#000000" stroke-width="2.0" stroke-linejoin="round" stroke-linecap="butt" stroke-dasharray="2.0,6.0" d="m518.24805 83.50394l0 402.99213" fill-rule="evenodd"/><path fill="#000000" fill-opacity="0.0" d="m190.24803 284.99966c2.3333282 4.3333435 7.0 18.833344 14.0 26.0c7.0 7.166687 18.166672 19.5 28.0 17.0c9.833328 -2.5 20.0 -17.833313 30.999985 -32.0c11.0 -14.1666565 25.333344 -39.166656 35.0 -53.0c9.666687 -13.833328 14.0 -20.166656 23.0 -30.0c9.0 -9.833328 20.333344 -21.666656 31.0 -29.0c10.666687 -7.3333282 21.333344 -11.5 33.0 -15.0c11.666687 -3.5 25.666687 -4.8333282 37.0 -6.0c11.3333435 -1.1666565 20.833344 -2.8333282 31.0 -1.0c10.166687 1.8333435 21.333344 5.6666718 30.0 12.0c8.666687 6.3333435 15.166687 16.333344 22.0 26.0c6.8333435 9.666672 13.6666565 22.833344 19.00003 32.0c5.333313 9.166672 8.333313 14.0 13.0 23.0c4.666626 9.0 10.333313 22.666687 15.0 31.0c4.666626 8.3333435 7.333313 11.8333435 13.0 19.0c5.666626 7.166687 14.166626 18.5 21.0 24.0c6.833313 5.5 16.666626 7.5 20.0 9.0" fill-rule="evenodd"/><path stroke="#3d85c6" stroke-width="2.0" stroke-linejoin="round" stroke-linecap="butt" d="m190.24803 284.99966c2.3333282 4.3333435 7.0 18.833344 14.0 26.0c7.0 7.166687 18.166672 19.5 28.0 17.0c9.833328 -2.5 20.0 -17.833313 30.999985 -32.0c11.0 -14.1666565 25.333344 -39.166656 35.0 -53.0c9.666687 -13.833328 14.0 -20.166656 23.0 -30.0c9.0 -9.833328 20.333344 -21.666656 31.0 -29.0c10.666687 -7.3333282 21.333344 -11.5 33.0 -15.0c11.666687 -3.5 25.666687 -4.8333282 37.0 -6.0c11.3333435 -1.1666565 20.833344 -2.8333282 31.0 -1.0c10.166687 1.8333435 21.333344 5.6666718 30.0 12.0c8.666687 6.3333435 15.166687 16.333344 22.0 26.0c6.8333435 9.666672 13.6666565 22.833344 19.00003 32.0c5.333313 9.166672 8.333313 14.0 13.0 23.0c4.666626 9.0 10.333313 22.666687 15.0 31.0c4.666626 8.3333435 7.333313 11.8333435 13.0 19.0c5.666626 7.166687 14.166626 18.5 21.0 24.0c6.833313 5.5 16.666626 7.5 20.0 9.0" fill-rule="evenodd"/><path fill="#000000" fill-opacity="0.0" d="m198.24803 338.0l72.50392 0l0 67.212585l-72.50392 0z" fill-rule="evenodd"/><path fill="#000000" d="m220.2817 364.70123q0 0.109375 -0.078125 0.171875q-0.0625 0.046875 -0.1875 0.0625q-0.125 0.03125 -0.375 0.03125q-0.234375 0 -0.375 -0.03125q-0.140625 -0.015625 -0.203125 -0.0625q-0.0625 -0.0625 -0.0625 -0.171875l0 -0.8125q-0.546875 0.5625 -1.203125 0.890625q-0.65625 0.3125 -1.390625 0.3125q-0.65625 0 -1.1875 -0.171875q-0.515625 -0.15625 -0.890625 -0.46875q-0.359375 -0.328125 -0.5625 -0.796875q-0.203125 -0.46875 -0.203125 -1.0625q0 -0.6875 0.28125 -1.1875q0.28125 -0.515625 0.796875 -0.84375q0.53125 -0.34375 1.296875 -0.515625q0.765625 -0.171875 1.734375 -0.171875l1.125 0l0 -0.640625q0 -0.46875 -0.109375 -0.828125q-0.09375 -0.375 -0.328125 -0.609375q-0.21875 -0.25 -0.578125 -0.359375q-0.34375 -0.125 -0.859375 -0.125q-0.5625 0 -1.0 0.140625q-0.4375 0.125 -0.78125 0.28125q-0.328125 0.15625 -0.546875 0.296875q-0.21875 0.125 -0.328125 0.125q-0.078125 0 -0.140625 -0.03125q-0.046875 -0.046875 -0.09375 -0.109375q-0.03125 -0.078125 -0.0625 -0.1875q-0.015625 -0.125 -0.015625 -0.25q0 -0.234375 0.03125 -0.359375q0.03125 -0.140625 0.15625 -0.25q0.125 -0.125 0.421875 -0.28125q0.3125 -0.171875 0.703125 -0.296875q0.390625 -0.125 0.84375 -0.21875q0.46875 -0.09375 0.953125 -0.09375q0.875 0 1.484375 0.203125q0.625 0.203125 1.0 0.59375q0.390625 0.390625 0.5625 0.96875q0.171875 0.5625 0.171875 1.328125l0 5.53125zm-1.484375 -3.75l-1.28125 0q-0.625 0 -1.078125 0.109375q-0.453125 0.109375 -0.765625 0.3125q-0.296875 0.203125 -0.4375 0.5q-0.140625 0.28125 -0.140625 0.65625q0 0.625 0.40625 1.015625q0.40625 0.375 1.140625 0.375q0.59375 0 1.09375 -0.296875q0.5 -0.3125 1.0625 -0.921875l0 -1.75zm5.7489166 3.734375q0 0.078125 -0.03125 0.140625q-0.03125 0.046875 -0.125 0.078125q-0.078125 0.03125 -0.21875 0.046875q-0.140625 0.015625 -0.375 0.015625q-0.21875 0 -0.375 -0.015625q-0.140625 -0.015625 -0.234375 -0.046875q-0.078125 -0.03125 -0.109375 -0.078125q-0.03125 -0.0625 -0.03125 -0.140625l0 -12.15625q0 -0.078125 0.03125 -0.125q0.03125 -0.0625 0.109375 -0.09375q0.09375 -0.046875 0.234375 -0.0625q0.15625 -0.015625 0.375 -0.015625q0.234375 0 0.375 0.015625q0.140625 0.015625 0.21875 0.0625q0.09375 0.03125 0.125 0.09375q0.03125 0.046875 0.03125 0.125l0 12.15625zm8.953339 0.015625q0 0.109375 -0.078125 0.171875q-0.0625 0.046875 -0.1875 0.0625q-0.125 0.03125 -0.375 0.03125q-0.234375 0 -0.375 -0.03125q-0.140625 -0.015625 -0.203125 -0.0625q-0.0625 -0.0625 -0.0625 -0.171875l0 -0.8125q-0.546875 0.5625 -1.203125 0.890625q-0.65625 0.3125 -1.390625 0.3125q-0.65625 0 -1.1875 -0.171875q-0.515625 -0.15625 -0.890625 -0.46875q-0.359375 -0.328125 -0.5625 -0.796875q-0.203125 -0.46875 -0.203125 -1.0625q0 -0.6875 0.28125 -1.1875q0.28125 -0.515625 0.796875 -0.84375q0.53125 -0.34375 1.296875 -0.515625q0.765625 -0.171875 1.734375 -0.171875l1.125 0l0 -0.640625q0 -0.46875 -0.109375 -0.828125q-0.09375 -0.375 -0.328125 -0.609375q-0.21875 -0.25 -0.578125 -0.359375q-0.34375 -0.125 -0.859375 -0.125q-0.5625 0 -1.0 0.140625q-0.4375 0.125 -0.78125 0.28125q-0.328125 0.15625 -0.546875 0.296875q-0.21875 0.125 -0.328125 0.125q-0.078125 0 -0.140625 -0.03125q-0.046875 -0.046875 -0.09375 -0.109375q-0.03125 -0.078125 -0.0625 -0.1875q-0.015625 -0.125 -0.015625 -0.25q0 -0.234375 0.03125 -0.359375q0.03125 -0.140625 0.15625 -0.25q0.125 -0.125 0.421875 -0.28125q0.3125 -0.171875 0.703125 -0.296875q0.390625 -0.125 0.84375 -0.21875q0.46875 -0.09375 0.953125 -0.09375q0.875 0 1.484375 0.203125q0.625 0.203125 1.0 0.59375q0.390625 0.390625 0.5625 0.96875q0.171875 0.5625 0.171875 1.328125l0 5.53125zm-1.484375 -3.75l-1.28125 0q-0.625 0 -1.078125 0.109375q-0.453125 0.109375 -0.765625 0.3125q-0.296875 0.203125 -0.4375 0.5q-0.140625 0.28125 -0.140625 0.65625q0 0.625 0.40625 1.015625q0.40625 0.375 1.140625 0.375q0.59375 0 1.09375 -0.296875q0.5 -0.3125 1.0625 -0.921875l0 -1.75zm9.045792 -3.921875q0 0.203125 -0.015625 0.34375q0 0.125 -0.03125 0.203125q-0.03125 0.078125 -0.078125 0.125q-0.03125 0.046875 -0.109375 0.046875q-0.0625 0 -0.171875 -0.046875q-0.109375 -0.046875 -0.25 -0.078125q-0.125 -0.046875 -0.296875 -0.078125q-0.15625 -0.046875 -0.34375 -0.046875q-0.21875 0 -0.4375 0.09375q-0.21875 0.09375 -0.46875 0.3125q-0.234375 0.203125 -0.5 0.546875q-0.265625 0.34375 -0.59375 0.84375l0 5.390625q0 0.078125 -0.03125 0.140625q-0.03125 0.046875 -0.125 0.078125q-0.078125 0.03125 -0.21875 0.046875q-0.140625 0.015625 -0.375 0.015625q-0.21875 0 -0.375 -0.015625q-0.140625 -0.015625 -0.234375 -0.046875q-0.078125 -0.03125 -0.109375 -0.078125q-0.03125 -0.0625 -0.03125 -0.140625l0 -8.1875q0 -0.078125 0.03125 -0.125q0.03125 -0.046875 0.109375 -0.09375q0.078125 -0.046875 0.203125 -0.046875q0.140625 -0.015625 0.34375 -0.015625q0.203125 0 0.328125 0.015625q0.140625 0 0.203125 0.046875q0.078125 0.046875 0.109375 0.09375q0.03125 0.046875 0.03125 0.125l0 1.1875q0.34375 -0.484375 0.640625 -0.796875q0.296875 -0.3125 0.546875 -0.484375q0.265625 -0.1875 0.53125 -0.25q0.265625 -0.078125 0.515625 -0.078125q0.125 0 0.265625 0.015625q0.15625 0.015625 0.3125 0.0625q0.171875 0.03125 0.296875 0.078125q0.140625 0.046875 0.1875 0.09375q0.0625 0.046875 0.078125 0.09375q0.03125 0.03125 0.03125 0.09375q0.015625 0.0625 0.015625 0.1875q0.015625 0.125 0.015625 0.328125zm13.879181 7.65625q0 0.078125 -0.046875 0.140625q-0.03125 0.046875 -0.125 0.078125q-0.078125 0.03125 -0.21875 0.046875q-0.140625 0.015625 -0.359375 0.015625q-0.234375 0 -0.390625 -0.015625q-0.140625 -0.015625 -0.234375 -0.046875q-0.078125 -0.03125 -0.109375 -0.078125q-0.03125 -0.0625 -0.03125 -0.140625l0 -4.96875q0 -0.53125 -0.09375 -0.953125q-0.09375 -0.4375 -0.296875 -0.734375q-0.203125 -0.3125 -0.515625 -0.46875q-0.296875 -0.171875 -0.71875 -0.171875q-0.515625 0 -1.046875 0.40625q-0.515625 0.390625 -1.15625 1.171875l0 5.71875q0 0.078125 -0.03125 0.140625q-0.03125 0.046875 -0.125 0.078125q-0.078125 0.03125 -0.234375 0.046875q-0.140625 0.015625 -0.359375 0.015625q-0.203125 0 -0.359375 -0.015625q-0.15625 -0.015625 -0.25 -0.046875q-0.078125 -0.03125 -0.109375 -0.078125q-0.03125 -0.0625 -0.03125 -0.140625l0 -4.96875q0 -0.53125 -0.109375 -0.953125q-0.09375 -0.4375 -0.296875 -0.734375q-0.1875 -0.3125 -0.5 -0.46875q-0.296875 -0.171875 -0.71875 -0.171875q-0.515625 0 -1.046875 0.40625q-0.53125 0.390625 -1.15625 1.171875l0 5.71875q0 0.078125 -0.03125 0.140625q-0.03125 0.046875 -0.125 0.078125q-0.078125 0.03125 -0.21875 0.046875q-0.140625 0.015625 -0.375 0.015625q-0.21875 0 -0.375 -0.015625q-0.140625 -0.015625 -0.234375 -0.046875q-0.078125 -0.03125 -0.109375 -0.078125q-0.03125 -0.0625 -0.03125 -0.140625l0 -8.1875q0 -0.078125 0.03125 -0.125q0.03125 -0.046875 0.109375 -0.09375q0.078125 -0.046875 0.203125 -0.046875q0.140625 -0.015625 0.34375 -0.015625q0.203125 0 0.328125 0.015625q0.140625 0 0.203125 0.046875q0.078125 0.046875 0.109375 0.09375q0.03125 0.046875 0.03125 0.125l0 1.078125q0.6875 -0.765625 1.34375 -1.125q0.65625 -0.375 1.3125 -0.375q0.515625 0 0.921875 0.125q0.40625 0.125 0.703125 0.34375q0.3125 0.203125 0.53125 0.5q0.21875 0.296875 0.375 0.65625q0.40625 -0.4375 0.765625 -0.75q0.375 -0.3125 0.71875 -0.5q0.34375 -0.1875 0.65625 -0.28125q0.328125 -0.09375 0.65625 -0.09375q0.796875 0 1.328125 0.28125q0.546875 0.28125 0.875 0.75q0.328125 0.46875 0.46875 1.09375q0.15625 0.609375 0.15625 1.3125l0 5.171875z" fill-rule="nonzero"/><path fill="#000000" fill-opacity="0.0" d="m343.74915 104.50394l148.0 0l0 67.2126l-148.0 0z" fill-rule="evenodd"/><path fill="#000000" d="m385.52646 123.53331q0 0.203125 -0.015625 0.34375q0 0.125 -0.03125 0.203125q-0.03125 0.078125 -0.078125 0.125q-0.03125 0.046875 -0.109375 0.046875q-0.0625 0 -0.171875 -0.046875q-0.109375 -0.046875 -0.25 -0.078125q-0.125 -0.046875 -0.296875 -0.078125q-0.15625 -0.046875 -0.34375 -0.046875q-0.21875 0 -0.4375 0.09375q-0.21875 0.09375 -0.46875 0.3125q-0.234375 0.203125 -0.5 0.546875q-0.265625 0.34375 -0.59375 0.84375l0 5.390625q0 0.078125 -0.03125 0.140625q-0.03125 0.046875 -0.125 0.078125q-0.078125 0.03125 -0.21875 0.046875q-0.140625 0.015625 -0.375 0.015625q-0.21875 0 -0.375 -0.015625q-0.140625 -0.015625 -0.234375 -0.046875q-0.078125 -0.03125 -0.109375 -0.078125q-0.03125 -0.0625 -0.03125 -0.140625l0 -8.1875q0 -0.078125 0.03125 -0.125q0.03125 -0.046875 0.109375 -0.09375q0.078125 -0.046875 0.203125 -0.046875q0.140625 -0.015625 0.34375 -0.015625q0.203125 0 0.328125 0.015625q0.140625 0 0.203125 0.046875q0.078125 0.046875 0.109375 0.09375q0.03125 0.046875 0.03125 0.125l0 1.1875q0.34375 -0.484375 0.640625 -0.796875q0.296875 -0.3125 0.546875 -0.484375q0.265625 -0.1875 0.53125 -0.25q0.265625 -0.078125 0.515625 -0.078125q0.125 0 0.265625 0.015625q0.15625 0.015625 0.3125 0.0625q0.171875 0.03125 0.296875 0.078125q0.140625 0.046875 0.1875 0.09375q0.0625 0.046875 0.078125 0.09375q0.03125 0.03125 0.03125 0.09375q0.015625 0.0625 0.015625 0.1875q0.015625 0.125 0.015625 0.328125zm8.707306 3.203125q0 0.359375 -0.1875 0.515625q-0.171875 0.140625 -0.390625 0.140625l-5.375 0q0 0.6875 0.125 1.234375q0.140625 0.546875 0.453125 0.9375q0.328125 0.390625 0.828125 0.609375q0.515625 0.203125 1.25 0.203125q0.59375 0 1.046875 -0.09375q0.453125 -0.09375 0.78125 -0.203125q0.34375 -0.125 0.546875 -0.21875q0.21875 -0.109375 0.328125 -0.109375q0.0625 0 0.109375 0.03125q0.0625 0.03125 0.078125 0.109375q0.03125 0.0625 0.046875 0.171875q0.015625 0.109375 0.015625 0.28125q0 0.109375 -0.015625 0.203125q0 0.078125 -0.015625 0.15625q-0.015625 0.0625 -0.046875 0.125q-0.03125 0.046875 -0.09375 0.09375q-0.046875 0.046875 -0.296875 0.171875q-0.234375 0.109375 -0.625 0.21875q-0.390625 0.109375 -0.90625 0.1875q-0.515625 0.09375 -1.09375 0.09375q-1.015625 0 -1.78125 -0.28125q-0.765625 -0.28125 -1.28125 -0.828125q-0.515625 -0.5625 -0.78125 -1.390625q-0.265625 -0.84375 -0.265625 -1.96875q0 -1.046875 0.265625 -1.890625q0.28125 -0.84375 0.796875 -1.421875q0.515625 -0.59375 1.234375 -0.90625q0.734375 -0.328125 1.640625 -0.328125q0.96875 0 1.640625 0.3125q0.6875 0.3125 1.125 0.84375q0.4375 0.515625 0.640625 1.234375q0.203125 0.703125 0.203125 1.5l0 0.265625zm-1.515625 -0.4375q0.03125 -1.1875 -0.53125 -1.859375q-0.546875 -0.671875 -1.625 -0.671875q-0.5625 0 -0.984375 0.21875q-0.40625 0.203125 -0.6875 0.546875q-0.28125 0.34375 -0.4375 0.8125q-0.15625 0.453125 -0.171875 0.953125l4.4375 0zm8.954437 2.671875q0 0.625 -0.234375 1.125q-0.234375 0.484375 -0.671875 0.828125q-0.421875 0.328125 -1.015625 0.5q-0.59375 0.171875 -1.296875 0.171875q-0.4375 0 -0.84375 -0.078125q-0.390625 -0.0625 -0.703125 -0.15625q-0.3125 -0.109375 -0.53125 -0.21875q-0.21875 -0.125 -0.328125 -0.203125q-0.09375 -0.09375 -0.140625 -0.25q-0.046875 -0.171875 -0.046875 -0.453125q0 -0.171875 0.015625 -0.296875q0.03125 -0.125 0.046875 -0.1875q0.03125 -0.078125 0.078125 -0.109375q0.046875 -0.03125 0.125 -0.03125q0.09375 0 0.28125 0.125q0.203125 0.125 0.484375 0.265625q0.296875 0.140625 0.6875 0.265625q0.390625 0.125 0.90625 0.125q0.375 0 0.6875 -0.078125q0.3125 -0.078125 0.53125 -0.234375q0.234375 -0.171875 0.359375 -0.40625q0.125 -0.25 0.125 -0.59375q0 -0.34375 -0.1875 -0.578125q-0.171875 -0.234375 -0.46875 -0.421875q-0.28125 -0.1875 -0.65625 -0.328125q-0.359375 -0.140625 -0.75 -0.296875q-0.390625 -0.15625 -0.765625 -0.34375q-0.359375 -0.203125 -0.65625 -0.484375q-0.28125 -0.28125 -0.46875 -0.671875q-0.171875 -0.390625 -0.171875 -0.9375q0 -0.484375 0.1875 -0.921875q0.1875 -0.4375 0.5625 -0.765625q0.375 -0.34375 0.921875 -0.546875q0.5625 -0.203125 1.3125 -0.203125q0.328125 0 0.65625 0.0625q0.328125 0.046875 0.59375 0.140625q0.265625 0.078125 0.453125 0.171875q0.1875 0.09375 0.28125 0.171875q0.09375 0.078125 0.125 0.140625q0.03125 0.046875 0.046875 0.109375q0.015625 0.0625 0.03125 0.171875q0.015625 0.09375 0.015625 0.234375q0 0.15625 -0.015625 0.28125q-0.015625 0.109375 -0.046875 0.1875q-0.03125 0.0625 -0.078125 0.09375q-0.046875 0.03125 -0.09375 0.03125q-0.09375 0 -0.25 -0.09375q-0.140625 -0.09375 -0.390625 -0.203125q-0.25 -0.125 -0.578125 -0.21875q-0.328125 -0.109375 -0.765625 -0.109375q-0.375 0 -0.671875 0.09375q-0.296875 0.078125 -0.484375 0.25q-0.1875 0.15625 -0.28125 0.375q-0.09375 0.21875 -0.09375 0.46875q0 0.359375 0.171875 0.609375q0.1875 0.234375 0.484375 0.421875q0.296875 0.171875 0.671875 0.328125q0.375 0.140625 0.75 0.296875q0.390625 0.140625 0.765625 0.34375q0.390625 0.1875 0.671875 0.46875q0.296875 0.265625 0.46875 0.65625q0.1875 0.375 0.1875 0.90625zm3.6404724 2.21875q0 0.078125 -0.03125 0.140625q-0.03125 0.046875 -0.125 0.078125q-0.078125 0.03125 -0.21875 0.046875q-0.140625 0.015625 -0.375 0.015625q-0.21875 0 -0.375 -0.015625q-0.140625 -0.015625 -0.234375 -0.046875q-0.078125 -0.03125 -0.109375 -0.078125q-0.03125 -0.0625 -0.03125 -0.140625l0 -8.1875q0 -0.0625 0.03125 -0.109375q0.03125 -0.0625 0.109375 -0.09375q0.09375 -0.046875 0.234375 -0.0625q0.15625 -0.015625 0.375 -0.015625q0.234375 0 0.375 0.015625q0.140625 0.015625 0.21875 0.0625q0.09375 0.03125 0.125 0.09375q0.03125 0.046875 0.03125 0.109375l0 8.1875zm0.171875 -10.96875q0 0.53125 -0.203125 0.734375q-0.1875 0.1875 -0.734375 0.1875q-0.515625 0 -0.71875 -0.1875q-0.1875 -0.1875 -0.1875 -0.703125q0 -0.53125 0.1875 -0.71875q0.203125 -0.203125 0.75 -0.203125q0.515625 0 0.703125 0.1875q0.203125 0.1875 0.203125 0.703125zm7.7658386 8.75q0 0.625 -0.234375 1.125q-0.234375 0.484375 -0.671875 0.828125q-0.421875 0.328125 -1.015625 0.5q-0.59375 0.171875 -1.296875 0.171875q-0.4375 0 -0.84375 -0.078125q-0.390625 -0.0625 -0.703125 -0.15625q-0.3125 -0.109375 -0.53125 -0.21875q-0.21875 -0.125 -0.328125 -0.203125q-0.09375 -0.09375 -0.140625 -0.25q-0.046875 -0.171875 -0.046875 -0.453125q0 -0.171875 0.015625 -0.296875q0.03125 -0.125 0.046875 -0.1875q0.03125 -0.078125 0.078125 -0.109375q0.046875 -0.03125 0.125 -0.03125q0.09375 0 0.28125 0.125q0.203125 0.125 0.484375 0.265625q0.296875 0.140625 0.6875 0.265625q0.390625 0.125 0.90625 0.125q0.375 0 0.6875 -0.078125q0.3125 -0.078125 0.53125 -0.234375q0.234375 -0.171875 0.359375 -0.40625q0.125 -0.25 0.125 -0.59375q0 -0.34375 -0.1875 -0.578125q-0.171875 -0.234375 -0.46875 -0.421875q-0.28125 -0.1875 -0.65625 -0.328125q-0.359375 -0.140625 -0.75 -0.296875q-0.390625 -0.15625 -0.765625 -0.34375q-0.359375 -0.203125 -0.65625 -0.484375q-0.28125 -0.28125 -0.46875 -0.671875q-0.171875 -0.390625 -0.171875 -0.9375q0 -0.484375 0.1875 -0.921875q0.1875 -0.4375 0.5625 -0.765625q0.375 -0.34375 0.921875 -0.546875q0.5625 -0.203125 1.3125 -0.203125q0.328125 0 0.65625 0.0625q0.328125 0.046875 0.59375 0.140625q0.265625 0.078125 0.453125 0.171875q0.1875 0.09375 0.28125 0.171875q0.09375 0.078125 0.125 0.140625q0.03125 0.046875 0.046875 0.109375q0.015625 0.0625 0.03125 0.171875q0.015625 0.09375 0.015625 0.234375q0 0.15625 -0.015625 0.28125q-0.015625 0.109375 -0.046875 0.1875q-0.03125 0.0625 -0.078125 0.09375q-0.046875 0.03125 -0.09375 0.03125q-0.09375 0 -0.25 -0.09375q-0.140625 -0.09375 -0.390625 -0.203125q-0.25 -0.125 -0.578125 -0.21875q-0.328125 -0.109375 -0.765625 -0.109375q-0.375 0 -0.671875 0.09375q-0.296875 0.078125 -0.484375 0.25q-0.1875 0.15625 -0.28125 0.375q-0.09375 0.21875 -0.09375 0.46875q0 0.359375 0.171875 0.609375q0.1875 0.234375 0.484375 0.421875q0.296875 0.171875 0.671875 0.328125q0.375 0.140625 0.75 0.296875q0.390625 0.140625 0.765625 0.34375q0.390625 0.1875 0.671875 0.46875q0.296875 0.265625 0.46875 0.65625q0.1875 0.375 0.1875 0.90625zm6.406067 1.625q0 0.265625 -0.046875 0.421875q-0.03125 0.15625 -0.109375 0.234375q-0.0625 0.0625 -0.21875 0.125q-0.140625 0.0625 -0.328125 0.09375q-0.1875 0.046875 -0.390625 0.078125q-0.203125 0.03125 -0.421875 0.03125q-0.640625 0 -1.09375 -0.171875q-0.453125 -0.171875 -0.75 -0.5q-0.28125 -0.34375 -0.421875 -0.859375q-0.125 -0.53125 -0.125 -1.25l0 -4.796875l-1.15625 0q-0.125 0 -0.21875 -0.140625q-0.078125 -0.140625 -0.078125 -0.46875q0 -0.171875 0.015625 -0.28125q0.03125 -0.125 0.0625 -0.203125q0.046875 -0.078125 0.09375 -0.109375q0.0625 -0.03125 0.140625 -0.03125l1.140625 0l0 -1.953125q0 -0.0625 0.03125 -0.109375q0.03125 -0.0625 0.109375 -0.109375q0.09375 -0.046875 0.234375 -0.0625q0.15625 -0.015625 0.375 -0.015625q0.21875 0 0.359375 0.015625q0.15625 0.015625 0.234375 0.0625q0.078125 0.046875 0.109375 0.109375q0.046875 0.046875 0.046875 0.109375l0 1.953125l2.109375 0q0.0625 0 0.109375 0.03125q0.0625 0.03125 0.109375 0.109375q0.046875 0.078125 0.0625 0.203125q0.015625 0.109375 0.015625 0.28125q0 0.328125 -0.078125 0.46875q-0.078125 0.140625 -0.21875 0.140625l-2.109375 0l0 4.578125q0 0.84375 0.25 1.28125q0.25 0.4375 0.90625 0.4375q0.203125 0 0.359375 -0.046875q0.171875 -0.046875 0.296875 -0.078125q0.125 -0.046875 0.21875 -0.09375q0.09375 -0.046875 0.171875 -0.046875q0.046875 0 0.078125 0.03125q0.046875 0.015625 0.0625 0.078125q0.03125 0.0625 0.046875 0.171875q0.015625 0.109375 0.015625 0.28125zm8.155365 0.609375q0 0.109375 -0.078125 0.171875q-0.0625 0.046875 -0.1875 0.0625q-0.125 0.03125 -0.375 0.03125q-0.234375 0 -0.375 -0.03125q-0.140625 -0.015625 -0.203125 -0.0625q-0.0625 -0.0625 -0.0625 -0.171875l0 -0.8125q-0.546875 0.5625 -1.203125 0.890625q-0.65625 0.3125 -1.390625 0.3125q-0.65625 0 -1.1875 -0.171875q-0.515625 -0.15625 -0.890625 -0.46875q-0.359375 -0.328125 -0.5625 -0.796875q-0.203125 -0.46875 -0.203125 -1.0625q0 -0.6875 0.28125 -1.1875q0.28125 -0.515625 0.796875 -0.84375q0.53125 -0.34375 1.296875 -0.515625q0.765625 -0.171875 1.734375 -0.171875l1.125 0l0 -0.640625q0 -0.46875 -0.109375 -0.828125q-0.09375 -0.375 -0.328125 -0.609375q-0.21875 -0.25 -0.578125 -0.359375q-0.34375 -0.125 -0.859375 -0.125q-0.5625 0 -1.0 0.140625q-0.4375 0.125 -0.78125 0.28125q-0.328125 0.15625 -0.546875 0.296875q-0.21875 0.125 -0.328125 0.125q-0.078125 0 -0.140625 -0.03125q-0.046875 -0.046875 -0.09375 -0.109375q-0.03125 -0.078125 -0.0625 -0.1875q-0.015625 -0.125 -0.015625 -0.25q0 -0.234375 0.03125 -0.359375q0.03125 -0.140625 0.15625 -0.25q0.125 -0.125 0.421875 -0.28125q0.3125 -0.171875 0.703125 -0.296875q0.390625 -0.125 0.84375 -0.21875q0.46875 -0.09375 0.953125 -0.09375q0.875 0 1.484375 0.203125q0.625 0.203125 1.0 0.59375q0.390625 0.390625 0.5625 0.96875q0.171875 0.5625 0.171875 1.328125l0 5.53125zm-1.484375 -3.75l-1.28125 0q-0.625 0 -1.078125 0.109375q-0.453125 0.109375 -0.765625 0.3125q-0.296875 0.203125 -0.4375 0.5q-0.140625 0.28125 -0.140625 0.65625q0 0.625 0.40625 1.015625q0.40625 0.375 1.140625 0.375q0.59375 0 1.09375 -0.296875q0.5 -0.3125 1.0625 -0.921875l0 -1.75zm11.311432 3.734375q0 0.078125 -0.046875 0.140625q-0.03125 0.046875 -0.109375 0.078125q-0.078125 0.03125 -0.234375 0.046875q-0.140625 0.015625 -0.359375 0.015625q-0.21875 0 -0.375 -0.015625q-0.140625 -0.015625 -0.234375 -0.046875q-0.078125 -0.03125 -0.109375 -0.078125q-0.03125 -0.0625 -0.03125 -0.140625l0 -4.796875q0 -0.703125 -0.109375 -1.125q-0.109375 -0.4375 -0.328125 -0.734375q-0.203125 -0.3125 -0.546875 -0.46875q-0.328125 -0.171875 -0.765625 -0.171875q-0.5625 0 -1.125 0.40625q-0.5625 0.390625 -1.1875 1.171875l0 5.71875q0 0.078125 -0.03125 0.140625q-0.03125 0.046875 -0.125 0.078125q-0.078125 0.03125 -0.21875 0.046875q-0.140625 0.015625 -0.375 0.015625q-0.21875 0 -0.375 -0.015625q-0.140625 -0.015625 -0.234375 -0.046875q-0.078125 -0.03125 -0.109375 -0.078125q-0.03125 -0.0625 -0.03125 -0.140625l0 -8.1875q0 -0.078125 0.03125 -0.125q0.03125 -0.046875 0.109375 -0.09375q0.078125 -0.046875 0.203125 -0.046875q0.140625 -0.015625 0.34375 -0.015625q0.203125 0 0.328125 0.015625q0.140625 0 0.203125 0.046875q0.078125 0.046875 0.109375 0.09375q0.03125 0.046875 0.03125 0.125l0 1.078125q0.6875 -0.765625 1.375 -1.125q0.6875 -0.375 1.390625 -0.375q0.828125 0 1.375 0.28125q0.5625 0.28125 0.90625 0.75q0.359375 0.46875 0.5 1.09375q0.15625 0.609375 0.15625 1.484375l0 5.0zm8.629944 -1.234375q0 0.140625 -0.015625 0.265625q0 0.109375 -0.03125 0.1875q-0.015625 0.078125 -0.046875 0.140625q-0.03125 0.0625 -0.140625 0.171875q-0.109375 0.109375 -0.390625 0.28125q-0.265625 0.171875 -0.609375 0.3125q-0.34375 0.125 -0.75 0.203125q-0.390625 0.078125 -0.828125 0.078125q-0.875 0 -1.5625 -0.28125q-0.6875 -0.296875 -1.15625 -0.859375q-0.453125 -0.5625 -0.703125 -1.375q-0.234375 -0.8125 -0.234375 -1.890625q0 -1.203125 0.296875 -2.0625q0.296875 -0.875 0.8125 -1.4375q0.515625 -0.5625 1.203125 -0.828125q0.703125 -0.265625 1.515625 -0.265625q0.390625 0 0.765625 0.078125q0.375 0.0625 0.671875 0.1875q0.3125 0.125 0.546875 0.28125q0.25 0.140625 0.359375 0.25q0.109375 0.109375 0.140625 0.1875q0.046875 0.0625 0.078125 0.15625q0.03125 0.078125 0.03125 0.1875q0.015625 0.109375 0.015625 0.265625q0 0.359375 -0.078125 0.5q-0.078125 0.140625 -0.203125 0.140625q-0.140625 0 -0.3125 -0.140625q-0.171875 -0.15625 -0.453125 -0.34375q-0.265625 -0.1875 -0.65625 -0.328125q-0.390625 -0.15625 -0.921875 -0.15625q-1.078125 0 -1.65625 0.84375q-0.578125 0.828125 -0.578125 2.40625q0 0.796875 0.140625 1.390625q0.15625 0.59375 0.4375 1.0q0.296875 0.40625 0.71875 0.609375q0.4375 0.1875 0.984375 0.1875q0.515625 0 0.90625 -0.15625q0.390625 -0.171875 0.671875 -0.359375q0.296875 -0.203125 0.484375 -0.359375q0.203125 -0.171875 0.3125 -0.171875q0.0625 0 0.109375 0.046875q0.046875 0.03125 0.078125 0.125q0.03125 0.078125 0.03125 0.21875q0.015625 0.125 0.015625 0.3125zm8.998199 -3.21875q0 0.359375 -0.1875 0.515625q-0.171875 0.140625 -0.390625 0.140625l-5.375 0q0 0.6875 0.125 1.234375q0.140625 0.546875 0.453125 0.9375q0.328125 0.390625 0.828125 0.609375q0.515625 0.203125 1.25 0.203125q0.59375 0 1.046875 -0.09375q0.453125 -0.09375 0.78125 -0.203125q0.34375 -0.125 0.546875 -0.21875q0.21875 -0.109375 0.328125 -0.109375q0.0625 0 0.109375 0.03125q0.0625 0.03125 0.078125 0.109375q0.03125 0.0625 0.046875 0.171875q0.015625 0.109375 0.015625 0.28125q0 0.109375 -0.015625 0.203125q0 0.078125 -0.015625 0.15625q-0.015625 0.0625 -0.046875 0.125q-0.03125 0.046875 -0.09375 0.09375q-0.046875 0.046875 -0.296875 0.171875q-0.234375 0.109375 -0.625 0.21875q-0.390625 0.109375 -0.90625 0.1875q-0.515625 0.09375 -1.09375 0.09375q-1.015625 0 -1.78125 -0.28125q-0.765625 -0.28125 -1.28125 -0.828125q-0.515625 -0.5625 -0.78125 -1.390625q-0.265625 -0.84375 -0.265625 -1.96875q0 -1.046875 0.265625 -1.890625q0.28125 -0.84375 0.796875 -1.421875q0.515625 -0.59375 1.234375 -0.90625q0.734375 -0.328125 1.640625 -0.328125q0.96875 0 1.640625 0.3125q0.6875 0.3125 1.125 0.84375q0.4375 0.515625 0.640625 1.234375q0.203125 0.703125 0.203125 1.5l0 0.265625zm-1.515625 -0.4375q0.03125 -1.1875 -0.53125 -1.859375q-0.546875 -0.671875 -1.625 -0.671875q-0.5625 0 -0.984375 0.21875q-0.40625 0.203125 -0.6875 0.546875q-0.28125 0.34375 -0.4375 0.8125q-0.15625 0.453125 -0.171875 0.953125l4.4375 0z" fill-rule="nonzero"/><path fill="#000000" fill-opacity="0.0" d="m518.24805 333.7848l252.0 0l0 43.18109l-252.0 0z" fill-rule="evenodd"/><path fill="#000000" d="m610.9536 357.60782q0 0.359375 -0.1875 0.515625q-0.171875 0.140625 -0.390625 0.140625l-5.375 0q0 0.6875 0.125 1.234375q0.140625 0.546875 0.453125 0.9375q0.328125 0.390625 0.828125 0.609375q0.515625 0.203125 1.25 0.203125q0.59375 0 1.046875 -0.09375q0.453125 -0.09375 0.78125 -0.203125q0.34375 -0.125 0.546875 -0.21875q0.21875 -0.109375 0.328125 -0.109375q0.0625 0 0.109375 0.03125q0.0625 0.03125 0.078125 0.109375q0.03125 0.0625 0.046875 0.171875q0.015625 0.109375 0.015625 0.28125q0 0.109375 -0.015625 0.203125q0 0.078125 -0.015625 0.15625q-0.015625 0.0625 -0.046875 0.125q-0.03125 0.046875 -0.09375 0.09375q-0.046875 0.046875 -0.296875 0.171875q-0.234375 0.109375 -0.625 0.21875q-0.390625 0.109375 -0.90625 0.1875q-0.515625 0.09375 -1.09375 0.09375q-1.015625 0 -1.78125 -0.28125q-0.765625 -0.28125 -1.28125 -0.828125q-0.515625 -0.5625 -0.78125 -1.390625q-0.265625 -0.84375 -0.265625 -1.96875q0 -1.046875 0.265625 -1.890625q0.28125 -0.84375 0.796875 -1.421875q0.515625 -0.59375 1.234375 -0.90625q0.734375 -0.328125 1.640625 -0.328125q0.96875 0 1.640625 0.3125q0.6875 0.3125 1.125 0.84375q0.4375 0.515625 0.640625 1.234375q0.203125 0.703125 0.203125 1.5l0 0.265625zm-1.515625 -0.4375q0.03125 -1.1875 -0.53125 -1.859375q-0.546875 -0.671875 -1.625 -0.671875q-0.5625 0 -0.984375 0.21875q-0.40625 0.203125 -0.6875 0.546875q-0.28125 0.34375 -0.4375 0.8125q-0.15625 0.453125 -0.171875 0.953125l4.4375 0zm10.016968 4.71875q0.0625 0.140625 0.0625 0.234375q0 0.078125 -0.09375 0.140625q-0.078125 0.046875 -0.25 0.0625q-0.171875 0.015625 -0.453125 0.015625q-0.28125 0 -0.4375 -0.015625q-0.15625 0 -0.265625 -0.03125q-0.09375 -0.03125 -0.140625 -0.078125q-0.046875 -0.0625 -0.078125 -0.125l-1.96875 -3.25l-1.96875 3.25q-0.03125 0.0625 -0.078125 0.125q-0.046875 0.046875 -0.15625 0.078125q-0.09375 0.03125 -0.25 0.03125q-0.140625 0.015625 -0.40625 0.015625q-0.265625 0 -0.4375 -0.015625q-0.15625 -0.015625 -0.234375 -0.0625q-0.078125 -0.0625 -0.078125 -0.140625q0 -0.09375 0.09375 -0.234375l2.546875 -4.0l-2.421875 -3.84375q-0.0625 -0.125 -0.078125 -0.203125q0 -0.09375 0.078125 -0.15625q0.09375 -0.0625 0.265625 -0.078125q0.1875 -0.015625 0.484375 -0.015625q0.265625 0 0.421875 0.015625q0.15625 0 0.25 0.03125q0.09375 0.03125 0.140625 0.078125q0.046875 0.046875 0.078125 0.109375l1.859375 3.046875l1.90625 -3.046875q0.03125 -0.0625 0.078125 -0.109375q0.046875 -0.046875 0.125 -0.078125q0.078125 -0.03125 0.21875 -0.03125q0.140625 -0.015625 0.390625 -0.015625q0.25 0 0.421875 0.015625q0.171875 0.015625 0.25 0.0625q0.078125 0.046875 0.0625 0.140625q0 0.09375 -0.078125 0.234375l-2.390625 3.796875l2.53125 4.046875zm8.923828 0.171875q0 0.078125 -0.046875 0.140625q-0.03125 0.046875 -0.109375 0.078125q-0.078125 0.03125 -0.234375 0.046875q-0.140625 0.015625 -0.359375 0.015625q-0.21875 0 -0.375 -0.015625q-0.140625 -0.015625 -0.234375 -0.046875q-0.078125 -0.03125 -0.109375 -0.078125q-0.03125 -0.0625 -0.03125 -0.140625l0 -4.796875q0 -0.703125 -0.109375 -1.125q-0.109375 -0.4375 -0.328125 -0.734375q-0.203125 -0.3125 -0.546875 -0.46875q-0.328125 -0.171875 -0.765625 -0.171875q-0.5625 0 -1.125 0.40625q-0.5625 0.390625 -1.1875 1.171875l0 5.71875q0 0.078125 -0.03125 0.140625q-0.03125 0.046875 -0.125 0.078125q-0.078125 0.03125 -0.21875 0.046875q-0.140625 0.015625 -0.375 0.015625q-0.21875 0 -0.375 -0.015625q-0.140625 -0.015625 -0.234375 -0.046875q-0.078125 -0.03125 -0.109375 -0.078125q-0.03125 -0.0625 -0.03125 -0.140625l0 -12.15625q0 -0.078125 0.03125 -0.125q0.03125 -0.0625 0.109375 -0.09375q0.09375 -0.046875 0.234375 -0.0625q0.15625 -0.015625 0.375 -0.015625q0.234375 0 0.375 0.015625q0.140625 0.015625 0.21875 0.0625q0.09375 0.03125 0.125 0.09375q0.03125 0.046875 0.03125 0.125l0 4.90625q0.65625 -0.6875 1.3125 -1.015625q0.65625 -0.34375 1.3125 -0.34375q0.828125 0 1.375 0.28125q0.5625 0.28125 0.90625 0.75q0.359375 0.46875 0.5 1.09375q0.15625 0.609375 0.15625 1.5l0 4.984375zm8.911194 0.015625q0 0.109375 -0.078125 0.171875q-0.0625 0.046875 -0.1875 0.0625q-0.125 0.03125 -0.375 0.03125q-0.234375 0 -0.375 -0.03125q-0.140625 -0.015625 -0.203125 -0.0625q-0.0625 -0.0625 -0.0625 -0.171875l0 -0.8125q-0.546875 0.5625 -1.203125 0.890625q-0.65625 0.3125 -1.390625 0.3125q-0.65625 0 -1.1875 -0.171875q-0.515625 -0.15625 -0.890625 -0.46875q-0.359375 -0.328125 -0.5625 -0.796875q-0.203125 -0.46875 -0.203125 -1.0625q0 -0.6875 0.28125 -1.1875q0.28125 -0.515625 0.796875 -0.84375q0.53125 -0.34375 1.296875 -0.515625q0.765625 -0.171875 1.734375 -0.171875l1.125 0l0 -0.640625q0 -0.46875 -0.109375 -0.828125q-0.09375 -0.375 -0.328125 -0.609375q-0.21875 -0.25 -0.578125 -0.359375q-0.34375 -0.125 -0.859375 -0.125q-0.5625 0 -1.0 0.140625q-0.4375 0.125 -0.78125 0.28125q-0.328125 0.15625 -0.546875 0.296875q-0.21875 0.125 -0.328125 0.125q-0.078125 0 -0.140625 -0.03125q-0.046875 -0.046875 -0.09375 -0.109375q-0.03125 -0.078125 -0.0625 -0.1875q-0.015625 -0.125 -0.015625 -0.25q0 -0.234375 0.03125 -0.359375q0.03125 -0.140625 0.15625 -0.25q0.125 -0.125 0.421875 -0.28125q0.3125 -0.171875 0.703125 -0.296875q0.390625 -0.125 0.84375 -0.21875q0.46875 -0.09375 0.953125 -0.09375q0.875 0 1.484375 0.203125q0.625 0.203125 1.0 0.59375q0.390625 0.390625 0.5625 0.96875q0.171875 0.5625 0.171875 1.328125l0 5.53125zm-1.484375 -3.75l-1.28125 0q-0.625 0 -1.078125 0.109375q-0.453125 0.109375 -0.765625 0.3125q-0.296875 0.203125 -0.4375 0.5q-0.140625 0.28125 -0.140625 0.65625q0 0.625 0.40625 1.015625q0.40625 0.375 1.140625 0.375q0.59375 0 1.09375 -0.296875q0.5 -0.3125 1.0625 -0.921875l0 -1.75zm11.280212 3.734375q0 0.078125 -0.03125 0.140625q-0.03125 0.046875 -0.125 0.078125q-0.078125 0.03125 -0.21875 0.046875q-0.125 0.015625 -0.3125 0.015625q-0.203125 0 -0.34375 -0.015625q-0.125 -0.015625 -0.203125 -0.046875q-0.078125 -0.03125 -0.109375 -0.078125q-0.03125 -0.0625 -0.03125 -0.140625l0 -1.078125q-0.703125 0.78125 -1.390625 1.140625q-0.671875 0.34375 -1.375 0.34375q-0.8125 0 -1.375 -0.265625q-0.5625 -0.28125 -0.90625 -0.75q-0.34375 -0.46875 -0.5 -1.09375q-0.15625 -0.625 -0.15625 -1.515625l0 -4.96875q0 -0.078125 0.03125 -0.125q0.03125 -0.046875 0.125 -0.09375q0.09375 -0.046875 0.234375 -0.046875q0.15625 -0.015625 0.375 -0.015625q0.21875 0 0.359375 0.015625q0.140625 0 0.21875 0.046875q0.09375 0.046875 0.125 0.09375q0.046875 0.046875 0.046875 0.125l0 4.765625q0 0.71875 0.09375 1.15625q0.109375 0.4375 0.328125 0.75q0.21875 0.296875 0.546875 0.46875q0.328125 0.15625 0.765625 0.15625q0.5625 0 1.125 -0.390625q0.5625 -0.40625 1.1875 -1.1875l0 -5.71875q0 -0.078125 0.03125 -0.125q0.03125 -0.046875 0.125 -0.09375q0.09375 -0.046875 0.234375 -0.046875q0.140625 -0.015625 0.359375 -0.015625q0.21875 0 0.359375 0.015625q0.15625 0 0.234375 0.046875q0.078125 0.046875 0.125 0.09375q0.046875 0.046875 0.046875 0.125l0 8.1875zm7.926819 -2.21875q0 0.625 -0.234375 1.125q-0.234375 0.484375 -0.671875 0.828125q-0.421875 0.328125 -1.015625 0.5q-0.59375 0.171875 -1.296875 0.171875q-0.4375 0 -0.84375 -0.078125q-0.390625 -0.0625 -0.703125 -0.15625q-0.3125 -0.109375 -0.53125 -0.21875q-0.21875 -0.125 -0.328125 -0.203125q-0.09375 -0.09375 -0.140625 -0.25q-0.046875 -0.171875 -0.046875 -0.453125q0 -0.171875 0.015625 -0.296875q0.03125 -0.125 0.046875 -0.1875q0.03125 -0.078125 0.078125 -0.109375q0.046875 -0.03125 0.125 -0.03125q0.09375 0 0.28125 0.125q0.203125 0.125 0.484375 0.265625q0.296875 0.140625 0.6875 0.265625q0.390625 0.125 0.90625 0.125q0.375 0 0.6875 -0.078125q0.3125 -0.078125 0.53125 -0.234375q0.234375 -0.171875 0.359375 -0.40625q0.125 -0.25 0.125 -0.59375q0 -0.34375 -0.1875 -0.578125q-0.171875 -0.234375 -0.46875 -0.421875q-0.28125 -0.1875 -0.65625 -0.328125q-0.359375 -0.140625 -0.75 -0.296875q-0.390625 -0.15625 -0.765625 -0.34375q-0.359375 -0.203125 -0.65625 -0.484375q-0.28125 -0.28125 -0.46875 -0.671875q-0.171875 -0.390625 -0.171875 -0.9375q0 -0.484375 0.1875 -0.921875q0.1875 -0.4375 0.5625 -0.765625q0.375 -0.34375 0.921875 -0.546875q0.5625 -0.203125 1.3125 -0.203125q0.328125 0 0.65625 0.0625q0.328125 0.046875 0.59375 0.140625q0.265625 0.078125 0.453125 0.171875q0.1875 0.09375 0.28125 0.171875q0.09375 0.078125 0.125 0.140625q0.03125 0.046875 0.046875 0.109375q0.015625 0.0625 0.03125 0.171875q0.015625 0.09375 0.015625 0.234375q0 0.15625 -0.015625 0.28125q-0.015625 0.109375 -0.046875 0.1875q-0.03125 0.0625 -0.078125 0.09375q-0.046875 0.03125 -0.09375 0.03125q-0.09375 0 -0.25 -0.09375q-0.140625 -0.09375 -0.390625 -0.203125q-0.25 -0.125 -0.578125 -0.21875q-0.328125 -0.109375 -0.765625 -0.109375q-0.375 0 -0.671875 0.09375q-0.296875 0.078125 -0.484375 0.25q-0.1875 0.15625 -0.28125 0.375q-0.09375 0.21875 -0.09375 0.46875q0 0.359375 0.171875 0.609375q0.1875 0.234375 0.484375 0.421875q0.296875 0.171875 0.671875 0.328125q0.375 0.140625 0.75 0.296875q0.390625 0.140625 0.765625 0.34375q0.390625 0.1875 0.671875 0.46875q0.296875 0.265625 0.46875 0.65625q0.1875 0.375 0.1875 0.90625zm6.406067 1.625q0 0.265625 -0.046875 0.421875q-0.03125 0.15625 -0.109375 0.234375q-0.0625 0.0625 -0.21875 0.125q-0.140625 0.0625 -0.328125 0.09375q-0.1875 0.046875 -0.390625 0.078125q-0.203125 0.03125 -0.421875 0.03125q-0.640625 0 -1.09375 -0.171875q-0.453125 -0.171875 -0.75 -0.5q-0.28125 -0.34375 -0.421875 -0.859375q-0.125 -0.53125 -0.125 -1.25l0 -4.796875l-1.15625 0q-0.125 0 -0.21875 -0.140625q-0.078125 -0.140625 -0.078125 -0.46875q0 -0.171875 0.015625 -0.28125q0.03125 -0.125 0.0625 -0.203125q0.046875 -0.078125 0.09375 -0.109375q0.0625 -0.03125 0.140625 -0.03125l1.140625 0l0 -1.953125q0 -0.0625 0.03125 -0.109375q0.03125 -0.0625 0.109375 -0.109375q0.09375 -0.046875 0.234375 -0.0625q0.15625 -0.015625 0.375 -0.015625q0.21875 0 0.359375 0.015625q0.15625 0.015625 0.234375 0.0625q0.078125 0.046875 0.109375 0.109375q0.046875 0.046875 0.046875 0.109375l0 1.953125l2.109375 0q0.0625 0 0.109375 0.03125q0.0625 0.03125 0.109375 0.109375q0.046875 0.078125 0.0625 0.203125q0.015625 0.109375 0.015625 0.28125q0 0.328125 -0.078125 0.46875q-0.078125 0.140625 -0.21875 0.140625l-2.109375 0l0 4.578125q0 0.84375 0.25 1.28125q0.25 0.4375 0.90625 0.4375q0.203125 0 0.359375 -0.046875q0.171875 -0.046875 0.296875 -0.078125q0.125 -0.046875 0.21875 -0.09375q0.09375 -0.046875 0.171875 -0.046875q0.046875 0 0.078125 0.03125q0.046875 0.015625 0.0625 0.078125q0.03125 0.0625 0.046875 0.171875q0.015625 0.109375 0.015625 0.28125zm3.4834595 0.59375q0 0.078125 -0.03125 0.140625q-0.03125 0.046875 -0.125 0.078125q-0.078125 0.03125 -0.21875 0.046875q-0.140625 0.015625 -0.375 0.015625q-0.21875 0 -0.375 -0.015625q-0.140625 -0.015625 -0.234375 -0.046875q-0.078125 -0.03125 -0.109375 -0.078125q-0.03125 -0.0625 -0.03125 -0.140625l0 -8.1875q0 -0.0625 0.03125 -0.109375q0.03125 -0.0625 0.109375 -0.09375q0.09375 -0.046875 0.234375 -0.0625q0.15625 -0.015625 0.375 -0.015625q0.234375 0 0.375 0.015625q0.140625 0.015625 0.21875 0.0625q0.09375 0.03125 0.125 0.09375q0.03125 0.046875 0.03125 0.109375l0 8.1875zm0.171875 -10.96875q0 0.53125 -0.203125 0.734375q-0.1875 0.1875 -0.734375 0.1875q-0.515625 0 -0.71875 -0.1875q-0.1875 -0.1875 -0.1875 -0.703125q0 -0.53125 0.1875 -0.71875q0.203125 -0.203125 0.75 -0.203125q0.515625 0 0.703125 0.1875q0.203125 0.1875 0.203125 0.703125zm10.234619 6.78125q0 1.0 -0.265625 1.84375q-0.265625 0.84375 -0.796875 1.453125q-0.515625 0.609375 -1.3125 0.953125q-0.78125 0.34375 -1.8125 0.34375q-1.015625 0 -1.765625 -0.296875q-0.75 -0.296875 -1.25 -0.875q-0.5 -0.578125 -0.75 -1.390625q-0.25 -0.828125 -0.25 -1.859375q0 -1.0 0.265625 -1.84375q0.265625 -0.84375 0.78125 -1.453125q0.53125 -0.609375 1.3125 -0.953125q0.78125 -0.34375 1.828125 -0.34375q1.015625 0 1.765625 0.3125q0.75 0.296875 1.25 0.875q0.5 0.5625 0.75 1.390625q0.25 0.8125 0.25 1.84375zm-1.578125 0.109375q0 -0.671875 -0.125 -1.265625q-0.125 -0.59375 -0.40625 -1.03125q-0.28125 -0.453125 -0.765625 -0.703125q-0.484375 -0.265625 -1.203125 -0.265625q-0.671875 0 -1.15625 0.234375q-0.46875 0.234375 -0.78125 0.671875q-0.296875 0.4375 -0.453125 1.03125q-0.15625 0.578125 -0.15625 1.28125q0 0.671875 0.125 1.265625q0.125 0.59375 0.40625 1.046875q0.296875 0.4375 0.78125 0.703125q0.484375 0.25 1.203125 0.25q0.65625 0 1.125 -0.234375q0.484375 -0.234375 0.796875 -0.65625q0.3125 -0.4375 0.453125 -1.03125q0.15625 -0.59375 0.15625 -1.296875zm10.853882 4.078125q0 0.078125 -0.046875 0.140625q-0.03125 0.046875 -0.109375 0.078125q-0.078125 0.03125 -0.234375 0.046875q-0.140625 0.015625 -0.359375 0.015625q-0.21875 0 -0.375 -0.015625q-0.140625 -0.015625 -0.234375 -0.046875q-0.078125 -0.03125 -0.109375 -0.078125q-0.03125 -0.0625 -0.03125 -0.140625l0 -4.796875q0 -0.703125 -0.109375 -1.125q-0.109375 -0.4375 -0.328125 -0.734375q-0.203125 -0.3125 -0.546875 -0.46875q-0.328125 -0.171875 -0.765625 -0.171875q-0.5625 0 -1.125 0.40625q-0.5625 0.390625 -1.1875 1.171875l0 5.71875q0 0.078125 -0.03125 0.140625q-0.03125 0.046875 -0.125 0.078125q-0.078125 0.03125 -0.21875 0.046875q-0.140625 0.015625 -0.375 0.015625q-0.21875 0 -0.375 -0.015625q-0.140625 -0.015625 -0.234375 -0.046875q-0.078125 -0.03125 -0.109375 -0.078125q-0.03125 -0.0625 -0.03125 -0.140625l0 -8.1875q0 -0.078125 0.03125 -0.125q0.03125 -0.046875 0.109375 -0.09375q0.078125 -0.046875 0.203125 -0.046875q0.140625 -0.015625 0.34375 -0.015625q0.203125 0 0.328125 0.015625q0.140625 0 0.203125 0.046875q0.078125 0.046875 0.109375 0.09375q0.03125 0.046875 0.03125 0.125l0 1.078125q0.6875 -0.765625 1.375 -1.125q0.6875 -0.375 1.390625 -0.375q0.828125 0 1.375 0.28125q0.5625 0.28125 0.90625 0.75q0.359375 0.46875 0.5 1.09375q0.15625 0.609375 0.15625 1.484375l0 5.0z" fill-rule="nonzero"/><path fill="#000000" fill-opacity="0.0" d="m138.24803 244.0l119.49608 0l0 51.212585l-119.49608 0z" fill-rule="evenodd"/><path fill="#000000" d="m174.40872 268.46686q0 0.625 -0.234375 1.125q-0.234375 0.484375 -0.671875 0.828125q-0.421875 0.328125 -1.015625 0.5q-0.59375 0.171875 -1.296875 0.171875q-0.4375 0 -0.84375 -0.078125q-0.390625 -0.0625 -0.703125 -0.15625q-0.3125 -0.109375 -0.53125 -0.21875q-0.21875 -0.125 -0.328125 -0.203125q-0.09375 -0.09375 -0.140625 -0.25q-0.046875 -0.171875 -0.046875 -0.453125q0 -0.171875 0.015625 -0.296875q0.03125 -0.125 0.046875 -0.1875q0.03125 -0.078125 0.078125 -0.109375q0.046875 -0.03125 0.125 -0.03125q0.09375 0 0.28125 0.125q0.203125 0.125 0.484375 0.265625q0.296875 0.140625 0.6875 0.265625q0.390625 0.125 0.90625 0.125q0.375 0 0.6875 -0.078125q0.3125 -0.078125 0.53125 -0.234375q0.234375 -0.171875 0.359375 -0.40625q0.125 -0.25 0.125 -0.59375q0 -0.34375 -0.1875 -0.578125q-0.171875 -0.234375 -0.46875 -0.421875q-0.28125 -0.1875 -0.65625 -0.328125q-0.359375 -0.140625 -0.75 -0.296875q-0.390625 -0.15625 -0.765625 -0.34375q-0.359375 -0.203125 -0.65625 -0.484375q-0.28125 -0.28125 -0.46875 -0.671875q-0.171875 -0.390625 -0.171875 -0.9375q0 -0.484375 0.1875 -0.921875q0.1875 -0.4375 0.5625 -0.765625q0.375 -0.34375 0.921875 -0.546875q0.5625 -0.203125 1.3125 -0.203125q0.328125 0 0.65625 0.0625q0.328125 0.046875 0.59375 0.140625q0.265625 0.078125 0.453125 0.171875q0.1875 0.09375 0.28125 0.171875q0.09375 0.078125 0.125 0.140625q0.03125 0.046875 0.046875 0.109375q0.015625 0.0625 0.03125 0.171875q0.015625 0.09375 0.015625 0.234375q0 0.15625 -0.015625 0.28125q-0.015625 0.109375 -0.046875 0.1875q-0.03125 0.0625 -0.078125 0.09375q-0.046875 0.03125 -0.09375 0.03125q-0.09375 0 -0.25 -0.09375q-0.140625 -0.09375 -0.390625 -0.203125q-0.25 -0.125 -0.578125 -0.21875q-0.328125 -0.109375 -0.765625 -0.109375q-0.375 0 -0.671875 0.09375q-0.296875 0.078125 -0.484375 0.25q-0.1875 0.15625 -0.28125 0.375q-0.09375 0.21875 -0.09375 0.46875q0 0.359375 0.171875 0.609375q0.1875 0.234375 0.484375 0.421875q0.296875 0.171875 0.671875 0.328125q0.375 0.140625 0.75 0.296875q0.390625 0.140625 0.765625 0.34375q0.390625 0.1875 0.671875 0.46875q0.296875 0.265625 0.46875 0.65625q0.1875 0.375 0.1875 0.90625zm6.406082 1.625q0 0.265625 -0.046875 0.421875q-0.03125 0.15625 -0.109375 0.234375q-0.0625 0.0625 -0.21875 0.125q-0.140625 0.0625 -0.328125 0.09375q-0.1875 0.046875 -0.390625 0.078125q-0.203125 0.03125 -0.421875 0.03125q-0.640625 0 -1.09375 -0.171875q-0.453125 -0.171875 -0.75 -0.5q-0.28125 -0.34375 -0.421875 -0.859375q-0.125 -0.53125 -0.125 -1.25l0 -4.796875l-1.15625 0q-0.125 0 -0.21875 -0.140625q-0.078125 -0.140625 -0.078125 -0.46875q0 -0.171875 0.015625 -0.28125q0.03125 -0.125 0.0625 -0.203125q0.046875 -0.078125 0.09375 -0.109375q0.0625 -0.03125 0.140625 -0.03125l1.140625 0l0 -1.953125q0 -0.0625 0.03125 -0.109375q0.03125 -0.0625 0.109375 -0.109375q0.09375 -0.046875 0.234375 -0.0625q0.15625 -0.015625 0.375 -0.015625q0.21875 0 0.359375 0.015625q0.15625 0.015625 0.234375 0.0625q0.078125 0.046875 0.109375 0.109375q0.046875 0.046875 0.046875 0.109375l0 1.953125l2.109375 0q0.0625 0 0.109375 0.03125q0.0625 0.03125 0.109375 0.109375q0.046875 0.078125 0.0625 0.203125q0.015625 0.109375 0.015625 0.28125q0 0.328125 -0.078125 0.46875q-0.078125 0.140625 -0.21875 0.140625l-2.109375 0l0 4.578125q0 0.84375 0.25 1.28125q0.25 0.4375 0.90625 0.4375q0.203125 0 0.359375 -0.046875q0.171875 -0.046875 0.296875 -0.078125q0.125 -0.046875 0.21875 -0.09375q0.09375 -0.046875 0.171875 -0.046875q0.046875 0 0.078125 0.03125q0.046875 0.015625 0.0625 0.078125q0.03125 0.0625 0.046875 0.171875q0.015625 0.109375 0.015625 0.28125zm6.780365 -7.0625q0 0.203125 -0.015625 0.34375q0 0.125 -0.03125 0.203125q-0.03125 0.078125 -0.078125 0.125q-0.03125 0.046875 -0.109375 0.046875q-0.0625 0 -0.171875 -0.046875q-0.109375 -0.046875 -0.25 -0.078125q-0.125 -0.046875 -0.296875 -0.078125q-0.15625 -0.046875 -0.34375 -0.046875q-0.21875 0 -0.4375 0.09375q-0.21875 0.09375 -0.46875 0.3125q-0.234375 0.203125 -0.5 0.546875q-0.265625 0.34375 -0.59375 0.84375l0 5.390625q0 0.078125 -0.03125 0.140625q-0.03125 0.046875 -0.125 0.078125q-0.078125 0.03125 -0.21875 0.046875q-0.140625 0.015625 -0.375 0.015625q-0.21875 0 -0.375 -0.015625q-0.140625 -0.015625 -0.234375 -0.046875q-0.078125 -0.03125 -0.109375 -0.078125q-0.03125 -0.0625 -0.03125 -0.140625l0 -8.1875q0 -0.078125 0.03125 -0.125q0.03125 -0.046875 0.109375 -0.09375q0.078125 -0.046875 0.203125 -0.046875q0.140625 -0.015625 0.34375 -0.015625q0.203125 0 0.328125 0.015625q0.140625 0 0.203125 0.046875q0.078125 0.046875 0.109375 0.09375q0.03125 0.046875 0.03125 0.125l0 1.1875q0.34375 -0.484375 0.640625 -0.796875q0.296875 -0.3125 0.546875 -0.484375q0.265625 -0.1875 0.53125 -0.25q0.265625 -0.078125 0.515625 -0.078125q0.125 0 0.265625 0.015625q0.15625 0.015625 0.3125 0.0625q0.171875 0.03125 0.296875 0.078125q0.140625 0.046875 0.1875 0.09375q0.0625 0.046875 0.078125 0.09375q0.03125 0.03125 0.03125 0.09375q0.015625 0.0625 0.015625 0.1875q0.015625 0.125 0.015625 0.328125zm8.707306 3.203125q0 0.359375 -0.1875 0.515625q-0.171875 0.140625 -0.390625 0.140625l-5.375 0q0 0.6875 0.125 1.234375q0.140625 0.546875 0.453125 0.9375q0.328125 0.390625 0.828125 0.609375q0.515625 0.203125 1.25 0.203125q0.59375 0 1.046875 -0.09375q0.453125 -0.09375 0.78125 -0.203125q0.34375 -0.125 0.546875 -0.21875q0.21875 -0.109375 0.328125 -0.109375q0.0625 0 0.109375 0.03125q0.0625 0.03125 0.078125 0.109375q0.03125 0.0625 0.046875 0.171875q0.015625 0.109375 0.015625 0.28125q0 0.109375 -0.015625 0.203125q0 0.078125 -0.015625 0.15625q-0.015625 0.0625 -0.046875 0.125q-0.03125 0.046875 -0.09375 0.09375q-0.046875 0.046875 -0.296875 0.171875q-0.234375 0.109375 -0.625 0.21875q-0.390625 0.109375 -0.90625 0.1875q-0.515625 0.09375 -1.09375 0.09375q-1.015625 0 -1.78125 -0.28125q-0.765625 -0.28125 -1.28125 -0.828125q-0.515625 -0.5625 -0.78125 -1.390625q-0.265625 -0.84375 -0.265625 -1.96875q0 -1.046875 0.265625 -1.890625q0.28125 -0.84375 0.796875 -1.421875q0.515625 -0.59375 1.234375 -0.90625q0.734375 -0.328125 1.640625 -0.328125q0.96875 0 1.640625 0.3125q0.6875 0.3125 1.125 0.84375q0.4375 0.515625 0.640625 1.234375q0.203125 0.703125 0.203125 1.5l0 0.265625zm-1.515625 -0.4375q0.03125 -1.1875 -0.53125 -1.859375q-0.546875 -0.671875 -1.625 -0.671875q-0.5625 0 -0.984375 0.21875q-0.40625 0.203125 -0.6875 0.546875q-0.28125 0.34375 -0.4375 0.8125q-0.15625 0.453125 -0.171875 0.953125l4.4375 0zm8.9544525 2.671875q0 0.625 -0.234375 1.125q-0.234375 0.484375 -0.671875 0.828125q-0.421875 0.328125 -1.015625 0.5q-0.59375 0.171875 -1.296875 0.171875q-0.4375 0 -0.84375 -0.078125q-0.390625 -0.0625 -0.703125 -0.15625q-0.3125 -0.109375 -0.53125 -0.21875q-0.21875 -0.125 -0.328125 -0.203125q-0.09375 -0.09375 -0.140625 -0.25q-0.046875 -0.171875 -0.046875 -0.453125q0 -0.171875 0.015625 -0.296875q0.03125 -0.125 0.046875 -0.1875q0.03125 -0.078125 0.078125 -0.109375q0.046875 -0.03125 0.125 -0.03125q0.09375 0 0.28125 0.125q0.203125 0.125 0.484375 0.265625q0.296875 0.140625 0.6875 0.265625q0.390625 0.125 0.90625 0.125q0.375 0 0.6875 -0.078125q0.3125 -0.078125 0.53125 -0.234375q0.234375 -0.171875 0.359375 -0.40625q0.125 -0.25 0.125 -0.59375q0 -0.34375 -0.1875 -0.578125q-0.171875 -0.234375 -0.46875 -0.421875q-0.28125 -0.1875 -0.65625 -0.328125q-0.359375 -0.140625 -0.75 -0.296875q-0.390625 -0.15625 -0.765625 -0.34375q-0.359375 -0.203125 -0.65625 -0.484375q-0.28125 -0.28125 -0.46875 -0.671875q-0.171875 -0.390625 -0.171875 -0.9375q0 -0.484375 0.1875 -0.921875q0.1875 -0.4375 0.5625 -0.765625q0.375 -0.34375 0.921875 -0.546875q0.5625 -0.203125 1.3125 -0.203125q0.328125 0 0.65625 0.0625q0.328125 0.046875 0.59375 0.140625q0.265625 0.078125 0.453125 0.171875q0.1875 0.09375 0.28125 0.171875q0.09375 0.078125 0.125 0.140625q0.03125 0.046875 0.046875 0.109375q0.015625 0.0625 0.03125 0.171875q0.015625 0.09375 0.015625 0.234375q0 0.15625 -0.015625 0.28125q-0.015625 0.109375 -0.046875 0.1875q-0.03125 0.0625 -0.078125 0.09375q-0.046875 0.03125 -0.09375 0.03125q-0.09375 0 -0.25 -0.09375q-0.140625 -0.09375 -0.390625 -0.203125q-0.25 -0.125 -0.578125 -0.21875q-0.328125 -0.109375 -0.765625 -0.109375q-0.375 0 -0.671875 0.09375q-0.296875 0.078125 -0.484375 0.25q-0.1875 0.15625 -0.28125 0.375q-0.09375 0.21875 -0.09375 0.46875q0 0.359375 0.171875 0.609375q0.1875 0.234375 0.484375 0.421875q0.296875 0.171875 0.671875 0.328125q0.375 0.140625 0.75 0.296875q0.390625 0.140625 0.765625 0.34375q0.390625 0.1875 0.671875 0.46875q0.296875 0.265625 0.46875 0.65625q0.1875 0.375 0.1875 0.90625zm7.296707 0q0 0.625 -0.234375 1.125q-0.234375 0.484375 -0.671875 0.828125q-0.421875 0.328125 -1.015625 0.5q-0.59375 0.171875 -1.296875 0.171875q-0.4375 0 -0.84375 -0.078125q-0.390625 -0.0625 -0.703125 -0.15625q-0.3125 -0.109375 -0.53125 -0.21875q-0.21875 -0.125 -0.328125 -0.203125q-0.09375 -0.09375 -0.140625 -0.25q-0.046875 -0.171875 -0.046875 -0.453125q0 -0.171875 0.015625 -0.296875q0.03125 -0.125 0.046875 -0.1875q0.03125 -0.078125 0.078125 -0.109375q0.046875 -0.03125 0.125 -0.03125q0.09375 0 0.28125 0.125q0.203125 0.125 0.484375 0.265625q0.296875 0.140625 0.6875 0.265625q0.390625 0.125 0.90625 0.125q0.375 0 0.6875 -0.078125q0.3125 -0.078125 0.53125 -0.234375q0.234375 -0.171875 0.359375 -0.40625q0.125 -0.25 0.125 -0.59375q0 -0.34375 -0.1875 -0.578125q-0.171875 -0.234375 -0.46875 -0.421875q-0.28125 -0.1875 -0.65625 -0.328125q-0.359375 -0.140625 -0.75 -0.296875q-0.390625 -0.15625 -0.765625 -0.34375q-0.359375 -0.203125 -0.65625 -0.484375q-0.28125 -0.28125 -0.46875 -0.671875q-0.171875 -0.390625 -0.171875 -0.9375q0 -0.484375 0.1875 -0.921875q0.1875 -0.4375 0.5625 -0.765625q0.375 -0.34375 0.921875 -0.546875q0.5625 -0.203125 1.3125 -0.203125q0.328125 0 0.65625 0.0625q0.328125 0.046875 0.59375 0.140625q0.265625 0.078125 0.453125 0.171875q0.1875 0.09375 0.28125 0.171875q0.09375 0.078125 0.125 0.140625q0.03125 0.046875 0.046875 0.109375q0.015625 0.0625 0.03125 0.171875q0.015625 0.09375 0.015625 0.234375q0 0.15625 -0.015625 0.28125q-0.015625 0.109375 -0.046875 0.1875q-0.03125 0.0625 -0.078125 0.09375q-0.046875 0.03125 -0.09375 0.03125q-0.09375 0 -0.25 -0.09375q-0.140625 -0.09375 -0.390625 -0.203125q-0.25 -0.125 -0.578125 -0.21875q-0.328125 -0.109375 -0.765625 -0.109375q-0.375 0 -0.671875 0.09375q-0.296875 0.078125 -0.484375 0.25q-0.1875 0.15625 -0.28125 0.375q-0.09375 0.21875 -0.09375 0.46875q0 0.359375 0.171875 0.609375q0.1875 0.234375 0.484375 0.421875q0.296875 0.171875 0.671875 0.328125q0.375 0.140625 0.75 0.296875q0.390625 0.140625 0.765625 0.34375q0.390625 0.1875 0.671875 0.46875q0.296875 0.265625 0.46875 0.65625q0.1875 0.375 0.1875 0.90625zm9.765457 -1.96875q0 1.0 -0.265625 1.84375q-0.265625 0.84375 -0.796875 1.453125q-0.515625 0.609375 -1.3125 0.953125q-0.78125 0.34375 -1.8125 0.34375q-1.015625 0 -1.765625 -0.296875q-0.75 -0.296875 -1.25 -0.875q-0.5 -0.578125 -0.75 -1.390625q-0.25 -0.828125 -0.25 -1.859375q0 -1.0 0.265625 -1.84375q0.265625 -0.84375 0.78125 -1.453125q0.53125 -0.609375 1.3125 -0.953125q0.78125 -0.34375 1.828125 -0.34375q1.015625 0 1.765625 0.3125q0.75 0.296875 1.25 0.875q0.5 0.5625 0.75 1.390625q0.25 0.8125 0.25 1.84375zm-1.578125 0.109375q0 -0.671875 -0.125 -1.265625q-0.125 -0.59375 -0.40625 -1.03125q-0.28125 -0.453125 -0.765625 -0.703125q-0.484375 -0.265625 -1.203125 -0.265625q-0.671875 0 -1.15625 0.234375q-0.46875 0.234375 -0.78125 0.671875q-0.296875 0.4375 -0.453125 1.03125q-0.15625 0.578125 -0.15625 1.28125q0 0.671875 0.125 1.265625q0.125 0.59375 0.40625 1.046875q0.296875 0.4375 0.78125 0.703125q0.484375 0.25 1.203125 0.25q0.65625 0 1.125 -0.234375q0.484375 -0.234375 0.796875 -0.65625q0.3125 -0.4375 0.453125 -1.03125q0.15625 -0.59375 0.15625 -1.296875zm8.588257 -3.578125q0 0.203125 -0.015625 0.34375q0 0.125 -0.03125 0.203125q-0.03125 0.078125 -0.078125 0.125q-0.03125 0.046875 -0.109375 0.046875q-0.0625 0 -0.171875 -0.046875q-0.109375 -0.046875 -0.25 -0.078125q-0.125 -0.046875 -0.296875 -0.078125q-0.15625 -0.046875 -0.34375 -0.046875q-0.21875 0 -0.4375 0.09375q-0.21875 0.09375 -0.46875 0.3125q-0.234375 0.203125 -0.5 0.546875q-0.265625 0.34375 -0.59375 0.84375l0 5.390625q0 0.078125 -0.03125 0.140625q-0.03125 0.046875 -0.125 0.078125q-0.078125 0.03125 -0.21875 0.046875q-0.140625 0.015625 -0.375 0.015625q-0.21875 0 -0.375 -0.015625q-0.140625 -0.015625 -0.234375 -0.046875q-0.078125 -0.03125 -0.109375 -0.078125q-0.03125 -0.0625 -0.03125 -0.140625l0 -8.1875q0 -0.078125 0.03125 -0.125q0.03125 -0.046875 0.109375 -0.09375q0.078125 -0.046875 0.203125 -0.046875q0.140625 -0.015625 0.34375 -0.015625q0.203125 0 0.328125 0.015625q0.140625 0 0.203125 0.046875q0.078125 0.046875 0.109375 0.09375q0.03125 0.046875 0.03125 0.125l0 1.1875q0.34375 -0.484375 0.640625 -0.796875q0.296875 -0.3125 0.546875 -0.484375q0.265625 -0.1875 0.53125 -0.25q0.265625 -0.078125 0.515625 -0.078125q0.125 0 0.265625 0.015625q0.15625 0.015625 0.3125 0.0625q0.171875 0.03125 0.296875 0.078125q0.140625 0.046875 0.1875 0.09375q0.0625 0.046875 0.078125 0.09375q0.03125 0.03125 0.03125 0.09375q0.015625 0.0625 0.015625 0.1875q0.015625 0.125 0.015625 0.328125z" fill-rule="nonzero"/><path fill="#000000" fill-opacity="0.0" d="m29.751968 244.0l119.49606 0l0 51.212585l-119.49606 0z" fill-rule="evenodd"/><path fill="#000000" d="m66.955086 266.48248q0 1.0625 -0.234375 1.921875q-0.234375 0.84375 -0.6875 1.453125q-0.453125 0.59375 -1.109375 0.921875q-0.640625 0.3125 -1.5000038 0.3125q-0.390625 0 -0.71875 -0.078125q-0.328125 -0.078125 -0.65625 -0.25q-0.3125 -0.171875 -0.640625 -0.4375q-0.3125 -0.265625 -0.671875 -0.640625l0 1.0q0 0.078125 -0.03125 0.140625q-0.03125 0.046875 -0.125 0.078125q-0.078125 0.03125 -0.203125 0.046875q-0.125 0.015625 -0.3125 0.015625q-0.171875 0 -0.3125 -0.015625q-0.125 -0.015625 -0.203125 -0.046875q-0.078125 -0.03125 -0.109375 -0.078125q-0.03125 -0.0625 -0.03125 -0.140625l0 -12.15625q0 -0.078125 0.03125 -0.125q0.03125 -0.0625 0.109375 -0.09375q0.09375 -0.046875 0.234375 -0.0625q0.15625 -0.015625 0.375 -0.015625q0.234375 0 0.375 0.015625q0.140625 0.015625 0.21875 0.0625q0.09375 0.03125 0.125 0.09375q0.03125 0.046875 0.03125 0.125l0 4.90625q0.375 -0.375 0.703125 -0.625q0.34375 -0.265625 0.671875 -0.421875q0.328125 -0.15625 0.65625 -0.234375q0.328125 -0.078125 0.703125 -0.078125q0.8906288 0 1.5156288 0.359375q0.640625 0.359375 1.03125 0.953125q0.40625 0.59375 0.578125 1.40625q0.1875 0.796875 0.1875 1.6875zm-1.59375 0.171875q0 -0.625 -0.09375 -1.21875q-0.09375 -0.59375 -0.328125 -1.046875q-0.234375 -0.453125 -0.625 -0.734375q-0.3906288 -0.28125 -0.9843788 -0.28125q-0.28125 0 -0.5625 0.09375q-0.28125 0.078125 -0.578125 0.265625q-0.296875 0.1875 -0.609375 0.5q-0.3125 0.296875 -0.671875 0.75l0 3.265625q0.625 0.765625 1.1875 1.15625q0.5625 0.390625 1.171875 0.390625q0.578125 0 0.9687538 -0.265625q0.40625 -0.28125 0.65625 -0.71875q0.25 -0.453125 0.359375 -1.015625q0.109375 -0.5625 0.109375 -1.140625zm10.020569 4.046875q0 0.109375 -0.078125 0.171875q-0.0625 0.046875 -0.1875 0.0625q-0.125 0.03125 -0.375 0.03125q-0.234375 0 -0.375 -0.03125q-0.140625 -0.015625 -0.203125 -0.0625q-0.0625 -0.0625 -0.0625 -0.171875l0 -0.8125q-0.546875 0.5625 -1.203125 0.890625q-0.65625 0.3125 -1.390625 0.3125q-0.65625 0 -1.1875 -0.171875q-0.515625 -0.15625 -0.890625 -0.46875q-0.359375 -0.328125 -0.5625 -0.796875q-0.203125 -0.46875 -0.203125 -1.0625q0 -0.6875 0.28125 -1.1875q0.28125 -0.515625 0.796875 -0.84375q0.53125 -0.34375 1.296875 -0.515625q0.765625 -0.171875 1.734375 -0.171875l1.125 0l0 -0.640625q0 -0.46875 -0.109375 -0.828125q-0.09375 -0.375 -0.328125 -0.609375q-0.21875 -0.25 -0.578125 -0.359375q-0.34375 -0.125 -0.859375 -0.125q-0.5625 0 -1.0 0.140625q-0.4375 0.125 -0.78125 0.28125q-0.328125 0.15625 -0.546875 0.296875q-0.21875 0.125 -0.328125 0.125q-0.078125 0 -0.140625 -0.03125q-0.046875 -0.046875 -0.09375 -0.109375q-0.03125 -0.078125 -0.0625 -0.1875q-0.015625 -0.125 -0.015625 -0.25q0 -0.234375 0.03125 -0.359375q0.03125 -0.140625 0.15625 -0.25q0.125 -0.125 0.421875 -0.28125q0.3125 -0.171875 0.703125 -0.296875q0.390625 -0.125 0.84375 -0.21875q0.46875 -0.09375 0.953125 -0.09375q0.875 0 1.484375 0.203125q0.625 0.203125 1.0 0.59375q0.390625 0.390625 0.5625 0.96875q0.171875 0.5625 0.171875 1.328125l0 5.53125zm-1.484375 -3.75l-1.28125 0q-0.625 0 -1.078125 0.109375q-0.453125 0.109375 -0.765625 0.3125q-0.296875 0.203125 -0.4375 0.5q-0.140625 0.28125 -0.140625 0.65625q0 0.625 0.40625 1.015625q0.40625 0.375 1.140625 0.375q0.59375 0 1.09375 -0.296875q0.5 -0.3125 1.0625 -0.921875l0 -1.75zm9.405167 1.515625q0 0.625 -0.234375 1.125q-0.234375 0.484375 -0.671875 0.828125q-0.421875 0.328125 -1.015625 0.5q-0.59375 0.171875 -1.296875 0.171875q-0.4375 0 -0.84375 -0.078125q-0.390625 -0.0625 -0.703125 -0.15625q-0.3125 -0.109375 -0.53125 -0.21875q-0.21875 -0.125 -0.328125 -0.203125q-0.09375 -0.09375 -0.140625 -0.25q-0.046875 -0.171875 -0.046875 -0.453125q0 -0.171875 0.015625 -0.296875q0.03125 -0.125 0.046875 -0.1875q0.03125 -0.078125 0.078125 -0.109375q0.046875 -0.03125 0.125 -0.03125q0.09375 0 0.28125 0.125q0.203125 0.125 0.484375 0.265625q0.296875 0.140625 0.6875 0.265625q0.390625 0.125 0.90625 0.125q0.375 0 0.6875 -0.078125q0.3125 -0.078125 0.53125 -0.234375q0.234375 -0.171875 0.359375 -0.40625q0.125 -0.25 0.125 -0.59375q0 -0.34375 -0.1875 -0.578125q-0.171875 -0.234375 -0.46875 -0.421875q-0.28125 -0.1875 -0.65625 -0.328125q-0.359375 -0.140625 -0.75 -0.296875q-0.390625 -0.15625 -0.765625 -0.34375q-0.359375 -0.203125 -0.65625 -0.484375q-0.28125 -0.28125 -0.46875 -0.671875q-0.171875 -0.390625 -0.171875 -0.9375q0 -0.484375 0.1875 -0.921875q0.1875 -0.4375 0.5625 -0.765625q0.375 -0.34375 0.921875 -0.546875q0.5625 -0.203125 1.3125 -0.203125q0.328125 0 0.65625 0.0625q0.328125 0.046875 0.59375 0.140625q0.265625 0.078125 0.453125 0.171875q0.1875 0.09375 0.28125 0.171875q0.09375 0.078125 0.125 0.140625q0.03125 0.046875 0.046875 0.109375q0.015625 0.0625 0.03125 0.171875q0.015625 0.09375 0.015625 0.234375q0 0.15625 -0.015625 0.28125q-0.015625 0.109375 -0.046875 0.1875q-0.03125 0.0625 -0.078125 0.09375q-0.046875 0.03125 -0.09375 0.03125q-0.09375 0 -0.25 -0.09375q-0.140625 -0.09375 -0.390625 -0.203125q-0.25 -0.125 -0.578125 -0.21875q-0.328125 -0.109375 -0.765625 -0.109375q-0.375 0 -0.671875 0.09375q-0.296875 0.078125 -0.484375 0.25q-0.1875 0.15625 -0.28125 0.375q-0.09375 0.21875 -0.09375 0.46875q0 0.359375 0.171875 0.609375q0.1875 0.234375 0.484375 0.421875q0.296875 0.171875 0.671875 0.328125q0.375 0.140625 0.75 0.296875q0.390625 0.140625 0.765625 0.34375q0.390625 0.1875 0.671875 0.46875q0.296875 0.265625 0.46875 0.65625q0.1875 0.375 0.1875 0.90625zm9.140457 -2.234375q0 0.359375 -0.1875 0.515625q-0.171875 0.140625 -0.390625 0.140625l-5.375 0q0 0.6875 0.125 1.234375q0.140625 0.546875 0.453125 0.9375q0.328125 0.390625 0.828125 0.609375q0.515625 0.203125 1.25 0.203125q0.59375 0 1.046875 -0.09375q0.453125 -0.09375 0.78125 -0.203125q0.34375 -0.125 0.546875 -0.21875q0.21875 -0.109375 0.328125 -0.109375q0.0625 0 0.109375 0.03125q0.0625 0.03125 0.078125 0.109375q0.03125 0.0625 0.046875 0.171875q0.015625 0.109375 0.015625 0.28125q0 0.109375 -0.015625 0.203125q0 0.078125 -0.015625 0.15625q-0.015625 0.0625 -0.046875 0.125q-0.03125 0.046875 -0.09375 0.09375q-0.046875 0.046875 -0.296875 0.171875q-0.234375 0.109375 -0.625 0.21875q-0.390625 0.109375 -0.90625 0.1875q-0.515625 0.09375 -1.09375 0.09375q-1.015625 0 -1.78125 -0.28125q-0.765625 -0.28125 -1.28125 -0.828125q-0.515625 -0.5625 -0.78125 -1.390625q-0.265625 -0.84375 -0.265625 -1.96875q0 -1.046875 0.265625 -1.890625q0.28125 -0.84375 0.796875 -1.421875q0.515625 -0.59375 1.234375 -0.90625q0.734375 -0.328125 1.640625 -0.328125q0.96875 0 1.640625 0.3125q0.6875 0.3125 1.125 0.84375q0.4375 0.515625 0.640625 1.234375q0.203125 0.703125 0.203125 1.5l0 0.265625zm-1.515625 -0.4375q0.03125 -1.1875 -0.53125 -1.859375q-0.546875 -0.671875 -1.625 -0.671875q-0.5625 0 -0.984375 0.21875q-0.40625 0.203125 -0.6875 0.546875q-0.28125 0.34375 -0.4375 0.8125q-0.15625 0.453125 -0.171875 0.953125l4.4375 0zm5.298195 4.890625q0 0.078125 -0.03125 0.140625q-0.03125 0.046875 -0.125 0.078125q-0.078125 0.03125 -0.21875 0.046875q-0.140625 0.015625 -0.375 0.015625q-0.21875 0 -0.375 -0.015625q-0.140625 -0.015625 -0.234375 -0.046875q-0.078125 -0.03125 -0.109375 -0.078125q-0.03125 -0.0625 -0.03125 -0.140625l0 -12.15625q0 -0.078125 0.03125 -0.125q0.03125 -0.0625 0.109375 -0.09375q0.09375 -0.046875 0.234375 -0.0625q0.15625 -0.015625 0.375 -0.015625q0.234375 0 0.375 0.015625q0.140625 0.015625 0.21875 0.0625q0.09375 0.03125 0.125 0.09375q0.03125 0.046875 0.03125 0.125l0 12.15625zm4.2814636 0q0 0.078125 -0.03125 0.140625q-0.03125 0.046875 -0.125 0.078125q-0.078125 0.03125 -0.21875 0.046875q-0.140625 0.015625 -0.375 0.015625q-0.21875 0 -0.375 -0.015625q-0.140625 -0.015625 -0.234375 -0.046875q-0.078125 -0.03125 -0.109375 -0.078125q-0.03125 -0.0625 -0.03125 -0.140625l0 -8.1875q0 -0.0625 0.03125 -0.109375q0.03125 -0.0625 0.109375 -0.09375q0.09375 -0.046875 0.234375 -0.0625q0.15625 -0.015625 0.375 -0.015625q0.234375 0 0.375 0.015625q0.140625 0.015625 0.21875 0.0625q0.09375 0.03125 0.125 0.09375q0.03125 0.046875 0.03125 0.109375l0 8.1875zm0.171875 -10.96875q0 0.53125 -0.203125 0.734375q-0.1875 0.1875 -0.734375 0.1875q-0.515625 0 -0.71875 -0.1875q-0.1875 -0.1875 -0.1875 -0.703125q0 -0.53125 0.1875 -0.71875q0.203125 -0.203125 0.75 -0.203125q0.515625 0 0.703125 0.1875q0.203125 0.1875 0.203125 0.703125zm9.672089 10.96875q0 0.078125 -0.046875 0.140625q-0.03125 0.046875 -0.109375 0.078125q-0.078125 0.03125 -0.234375 0.046875q-0.140625 0.015625 -0.359375 0.015625q-0.21875 0 -0.375 -0.015625q-0.140625 -0.015625 -0.234375 -0.046875q-0.078125 -0.03125 -0.109375 -0.078125q-0.03125 -0.0625 -0.03125 -0.140625l0 -4.796875q0 -0.703125 -0.109375 -1.125q-0.109375 -0.4375 -0.328125 -0.734375q-0.203125 -0.3125 -0.546875 -0.46875q-0.328125 -0.171875 -0.765625 -0.171875q-0.5625 0 -1.125 0.40625q-0.5625 0.390625 -1.1875 1.171875l0 5.71875q0 0.078125 -0.03125 0.140625q-0.03125 0.046875 -0.125 0.078125q-0.078125 0.03125 -0.21875 0.046875q-0.140625 0.015625 -0.375 0.015625q-0.21875 0 -0.375 -0.015625q-0.140625 -0.015625 -0.234375 -0.046875q-0.078125 -0.03125 -0.109375 -0.078125q-0.03125 -0.0625 -0.03125 -0.140625l0 -8.1875q0 -0.078125 0.03125 -0.125q0.03125 -0.046875 0.109375 -0.09375q0.078125 -0.046875 0.203125 -0.046875q0.140625 -0.015625 0.34375 -0.015625q0.203125 0 0.328125 0.015625q0.140625 0 0.203125 0.046875q0.078125 0.046875 0.109375 0.09375q0.03125 0.046875 0.03125 0.125l0 1.078125q0.6875 -0.765625 1.375 -1.125q0.6875 -0.375 1.390625 -0.375q0.828125 0 1.375 0.28125q0.5625 0.28125 0.90625 0.75q0.359375 0.46875 0.5 1.09375q0.15625 0.609375 0.15625 1.484375l0 5.0zm9.739319 -4.453125q0 0.359375 -0.1875 0.515625q-0.171875 0.140625 -0.390625 0.140625l-5.375 0q0 0.6875 0.125 1.234375q0.140625 0.546875 0.453125 0.9375q0.328125 0.390625 0.828125 0.609375q0.515625 0.203125 1.25 0.203125q0.59375 0 1.046875 -0.09375q0.453125 -0.09375 0.78125 -0.203125q0.34375 -0.125 0.546875 -0.21875q0.21875 -0.109375 0.328125 -0.109375q0.0625 0 0.109375 0.03125q0.0625 0.03125 0.078125 0.109375q0.03125 0.0625 0.046875 0.171875q0.015625 0.109375 0.015625 0.28125q0 0.109375 -0.015625 0.203125q0 0.078125 -0.015625 0.15625q-0.015625 0.0625 -0.046875 0.125q-0.03125 0.046875 -0.09375 0.09375q-0.046875 0.046875 -0.296875 0.171875q-0.234375 0.109375 -0.625 0.21875q-0.390625 0.109375 -0.90625 0.1875q-0.515625 0.09375 -1.09375 0.09375q-1.015625 0 -1.78125 -0.28125q-0.765625 -0.28125 -1.28125 -0.828125q-0.515625 -0.5625 -0.78125 -1.390625q-0.265625 -0.84375 -0.265625 -1.96875q0 -1.046875 0.265625 -1.890625q0.28125 -0.84375 0.796875 -1.421875q0.515625 -0.59375 1.234375 -0.90625q0.734375 -0.328125 1.640625 -0.328125q0.96875 0 1.640625 0.3125q0.6875 0.3125 1.125 0.84375q0.4375 0.515625 0.640625 1.234375q0.203125 0.703125 0.203125 1.5l0 0.265625zm-1.515625 -0.4375q0.03125 -1.1875 -0.53125 -1.859375q-0.546875 -0.671875 -1.625 -0.671875q-0.5625 0 -0.984375 0.21875q-0.40625 0.203125 -0.6875 0.546875q-0.28125 0.34375 -0.4375 0.8125q-0.15625 0.453125 -0.171875 0.953125l4.4375 0z" fill-rule="nonzero"/><path fill="#000000" fill-opacity="0.0" d="m112.0 10.291339l576.0 0l0 67.2126l-576.0 0z" fill-rule="evenodd"/><path fill="#a64d79" d="m155.5664 35.847588q0 0.375 -0.046875 0.65625q-0.03125 0.28125 -0.109375 0.46875q-0.078125 0.1875 -0.203125 0.265625q-0.109375 0.078125 -0.25 0.078125q-0.234375 0 -0.78125 -0.359375q-0.546875 -0.375 -1.46875 -0.828125q-0.90625 -0.453125 -2.1875 -0.8125q-1.28125 -0.375 -3.03125 -0.375q-2.09375 0 -3.765625 0.765625q-1.65625 0.75 -2.8125 2.109375q-1.140625 1.34375 -1.765625 3.203125q-0.609375 1.84375 -0.609375 4.015625q0 2.421875 0.671875 4.296875q0.671875 1.875 1.859375 3.171875q1.203125 1.28125 2.84375 1.953125q1.65625 0.65625 3.625 0.65625q1.171875 0 2.375 -0.28125q1.203125 -0.28125 2.234375 -0.859375l0 -7.359375l-5.859375 0q-0.328125 0 -0.5 -0.328125q-0.15625 -0.328125 -0.15625 -1.03125q0 -0.375 0.03125 -0.640625q0.046875 -0.265625 0.125 -0.421875q0.09375 -0.171875 0.203125 -0.25q0.125 -0.078125 0.296875 -0.078125l8.03125 0q0.21875 0 0.421875 0.078125q0.21875 0.078125 0.390625 0.234375q0.1875 0.15625 0.28125 0.4375q0.09375 0.265625 0.09375 0.609375l0 9.640625q0 0.5 -0.171875 0.875q-0.171875 0.375 -0.75 0.65625q-0.5625 0.28125 -1.46875 0.609375q-0.890625 0.328125 -1.84375 0.578125q-0.953125 0.234375 -1.9375 0.34375q-0.96875 0.125 -1.921875 0.125q-2.9375 0 -5.25 -0.90625q-2.296875 -0.921875 -3.890625 -2.59375q-1.59375 -1.6875 -2.4375 -4.03125q-0.828125 -2.34375 -0.828125 -5.234375q0 -3.0 0.90625 -5.4375q0.90625 -2.453125 2.546875 -4.171875q1.65625 -1.71875 3.96875 -2.65625q2.328125 -0.953125 5.140625 -0.953125q1.4375 0 2.703125 0.25q1.28125 0.25 2.265625 0.59375q0.984375 0.34375 1.65625 0.75q0.671875 0.390625 0.921875 0.65625q0.265625 0.25 0.359375 0.578125q0.09375 0.328125 0.09375 0.953125zm20.3125 20.453125q0 0.359375 -0.046875 0.625q-0.03125 0.25 -0.125 0.4375q-0.09375 0.171875 -0.234375 0.25q-0.125 0.078125 -0.28125 0.078125l-12.125 0q-0.453125 0 -0.859375 -0.296875q-0.390625 -0.3125 -0.390625 -1.078125l0 -22.53125q0 -0.765625 0.390625 -1.0625q0.40625 -0.3125 0.859375 -0.3125l12.0 0q0.15625 0 0.28125 0.078125q0.125 0.078125 0.203125 0.265625q0.078125 0.171875 0.125 0.4375q0.046875 0.265625 0.046875 0.65625q0 0.34375 -0.046875 0.609375q-0.046875 0.265625 -0.125 0.4375q-0.078125 0.15625 -0.203125 0.234375q-0.125 0.078125 -0.28125 0.078125l-9.890625 0l0 7.9375l8.484375 0q0.15625 0 0.28125 0.09375q0.125 0.078125 0.203125 0.234375q0.09375 0.15625 0.125 0.4375q0.046875 0.265625 0.046875 0.640625q0 0.34375 -0.046875 0.609375q-0.03125 0.25 -0.125 0.40625q-0.078125 0.15625 -0.203125 0.21875q-0.125 0.0625 -0.28125 0.0625l-8.484375 0l0 9.046875l10.015625 0q0.15625 0 0.28125 0.078125q0.140625 0.078125 0.234375 0.25q0.09375 0.15625 0.125 0.421875q0.046875 0.265625 0.046875 0.65625zm24.578125 0q0 0.390625 -0.140625 0.671875q-0.125 0.265625 -0.328125 0.453125q-0.203125 0.171875 -0.453125 0.25q-0.25 0.078125 -0.515625 0.078125l-1.0625 0q-0.515625 0 -0.90625 -0.109375q-0.375 -0.109375 -0.71875 -0.390625q-0.328125 -0.28125 -0.671875 -0.765625q-0.34375 -0.5 -0.75 -1.265625l-7.96875 -14.375q-0.625 -1.109375 -1.265625 -2.328125q-0.640625 -1.21875 -1.1875 -2.375l-0.03125 0q0.03125 1.40625 0.046875 2.875q0.03125 1.46875 0.03125 2.90625l0 15.25q0 0.140625 -0.078125 0.265625q-0.078125 0.125 -0.265625 0.203125q-0.1875 0.0625 -0.5 0.109375q-0.296875 0.0625 -0.765625 0.0625q-0.46875 0 -0.765625 -0.0625q-0.296875 -0.046875 -0.484375 -0.109375q-0.171875 -0.078125 -0.25 -0.203125q-0.078125 -0.125 -0.078125 -0.265625l0 -23.3125q0 -0.78125 0.421875 -1.109375q0.4375 -0.34375 0.953125 -0.34375l1.59375 0q0.5625 0 0.9375 0.109375q0.390625 0.09375 0.6875 0.328125q0.3125 0.21875 0.59375 0.625q0.28125 0.390625 0.609375 1.0l6.140625 11.09375q0.5625 1.015625 1.09375 1.984375q0.53125 0.953125 1.015625 1.890625q0.484375 0.9375 0.953125 1.859375q0.484375 0.90625 0.953125 1.8125l0.03125 0q-0.046875 -1.53125 -0.0625 -3.203125q0 -1.671875 0 -3.21875l0 -13.703125q0 -0.140625 0.078125 -0.25q0.078125 -0.125 0.265625 -0.203125q0.1875 -0.09375 0.484375 -0.125q0.296875 -0.046875 0.796875 -0.046875q0.421875 0 0.734375 0.046875q0.3125 0.03125 0.484375 0.125q0.1875 0.078125 0.265625 0.203125q0.078125 0.109375 0.078125 0.25l0 23.3125zm20.773438 0q0 0.359375 -0.046875 0.625q-0.03125 0.25 -0.125 0.4375q-0.09375 0.171875 -0.234375 0.25q-0.125 0.078125 -0.28125 0.078125l-12.125 0q-0.453125 0 -0.859375 -0.296875q-0.390625 -0.3125 -0.390625 -1.078125l0 -22.53125q0 -0.765625 0.390625 -1.0625q0.40625 -0.3125 0.859375 -0.3125l12.0 0q0.15625 0 0.28125 0.078125q0.125 0.078125 0.203125 0.265625q0.078125 0.171875 0.125 0.4375q0.046875 0.265625 0.046875 0.65625q0 0.34375 -0.046875 0.609375q-0.046875 0.265625 -0.125 0.4375q-0.078125 0.15625 -0.203125 0.234375q-0.125 0.078125 -0.28125 0.078125l-9.890625 0l0 7.9375l8.484375 0q0.15625 0 0.28125 0.09375q0.125 0.078125 0.203125 0.234375q0.09375 0.15625 0.125 0.4375q0.046875 0.265625 0.046875 0.640625q0 0.34375 -0.046875 0.609375q-0.03125 0.25 -0.125 0.40625q-0.078125 0.15625 -0.203125 0.21875q-0.125 0.0625 -0.28125 0.0625l-8.484375 0l0 9.046875l10.015625 0q0.15625 0 0.28125 0.078125q0.140625 0.078125 0.234375 0.25q0.09375 0.15625 0.125 0.421875q0.046875 0.265625 0.046875 0.65625zm22.328125 0.875q0 0.15625 -0.0625 0.28125q-0.0625 0.109375 -0.265625 0.203125q-0.1875 0.078125 -0.546875 0.109375q-0.34375 0.046875 -0.921875 0.046875q-0.515625 0 -0.84375 -0.046875q-0.3125 -0.03125 -0.515625 -0.125q-0.1875 -0.09375 -0.296875 -0.25q-0.109375 -0.15625 -0.1875 -0.390625l-2.3125 -5.953125q-0.421875 -1.015625 -0.859375 -1.859375q-0.4375 -0.859375 -1.046875 -1.46875q-0.59375 -0.625 -1.421875 -0.953125q-0.8125 -0.34375 -1.96875 -0.34375l-2.25 0l0 10.75q0 0.15625 -0.09375 0.28125q-0.078125 0.109375 -0.265625 0.1875q-0.1875 0.0625 -0.515625 0.109375q-0.3125 0.0625 -0.796875 0.0625q-0.5 0 -0.828125 -0.0625q-0.3125 -0.046875 -0.515625 -0.109375q-0.1875 -0.078125 -0.265625 -0.1875q-0.078125 -0.125 -0.078125 -0.28125l0 -23.390625q0 -0.765625 0.390625 -1.0625q0.40625 -0.3125 0.859375 -0.3125l5.375 0q0.953125 0 1.578125 0.0625q0.640625 0.046875 1.15625 0.09375q1.46875 0.265625 2.578125 0.8125q1.125 0.546875 1.890625 1.390625q0.765625 0.828125 1.140625 1.921875q0.390625 1.078125 0.390625 2.390625q0 1.265625 -0.34375 2.28125q-0.34375 1.0 -1.0 1.765625q-0.640625 0.765625 -1.546875 1.34375q-0.890625 0.5625 -2.0 0.953125q0.625 0.265625 1.125 0.6875q0.515625 0.421875 0.953125 1.015625q0.4375 0.578125 0.828125 1.34375q0.390625 0.765625 0.78125 1.71875l2.265625 5.5625q0.28125 0.703125 0.359375 0.984375q0.078125 0.28125 0.078125 0.4375zm-5.0625 -17.75q0 -1.484375 -0.671875 -2.5q-0.65625 -1.03125 -2.21875 -1.484375q-0.484375 -0.140625 -1.109375 -0.1875q-0.609375 -0.0625 -1.609375 -0.0625l-2.828125 0l0 8.515625l3.28125 0q1.328125 0 2.296875 -0.3125q0.96875 -0.328125 1.609375 -0.90625q0.640625 -0.578125 0.9375 -1.359375q0.3125 -0.78125 0.3125 -1.703125zm28.84375 17.078125q0.15625 0.421875 0.171875 0.6875q0.015625 0.265625 -0.140625 0.40625q-0.15625 0.140625 -0.53125 0.171875q-0.359375 0.046875 -0.953125 0.046875q-0.609375 0 -0.96875 -0.03125q-0.359375 -0.03125 -0.546875 -0.09375q-0.1875 -0.078125 -0.28125 -0.1875q-0.078125 -0.125 -0.15625 -0.296875l-2.171875 -6.15625l-10.515625 0l-2.0625 6.078125q-0.0625 0.171875 -0.15625 0.296875q-0.09375 0.125 -0.28125 0.21875q-0.1875 0.09375 -0.53125 0.125q-0.34375 0.046875 -0.890625 0.046875q-0.5625 0 -0.921875 -0.0625q-0.359375 -0.046875 -0.515625 -0.171875q-0.140625 -0.140625 -0.140625 -0.40625q0.015625 -0.265625 0.171875 -0.703125l8.484375 -23.46875q0.078125 -0.21875 0.203125 -0.34375q0.125 -0.140625 0.359375 -0.21875q0.25 -0.078125 0.625 -0.109375q0.390625 -0.03125 0.96875 -0.03125q0.625 0 1.03125 0.03125q0.421875 0.03125 0.671875 0.109375q0.25 0.078125 0.390625 0.21875q0.140625 0.140625 0.21875 0.359375l8.46875 23.484375zm-10.875 -20.734375l-0.015625 0l-4.359375 12.609375l8.796875 0l-4.421875 -12.609375zm28.207031 20.453125q0 0.390625 -0.046875 0.65625q-0.03125 0.265625 -0.125 0.453125q-0.078125 0.1875 -0.21875 0.28125q-0.125 0.078125 -0.296875 0.078125l-11.171875 0q-0.453125 0 -0.859375 -0.296875q-0.390625 -0.3125 -0.390625 -1.078125l0 -23.390625q0 -0.15625 0.078125 -0.265625q0.078125 -0.125 0.265625 -0.1875q0.203125 -0.078125 0.53125 -0.125q0.34375 -0.046875 0.8125 -0.046875q0.484375 0 0.796875 0.046875q0.328125 0.046875 0.515625 0.125q0.203125 0.0625 0.28125 0.1875q0.078125 0.109375 0.078125 0.265625l0 21.859375l9.0625 0q0.171875 0 0.296875 0.09375q0.140625 0.078125 0.21875 0.25q0.09375 0.15625 0.125 0.4375q0.046875 0.265625 0.046875 0.65625zm31.671875 0.28125q0.15625 0.421875 0.171875 0.6875q0.015625 0.265625 -0.140625 0.40625q-0.15625 0.140625 -0.53125 0.171875q-0.359375 0.046875 -0.953125 0.046875q-0.609375 0 -0.96875 -0.03125q-0.359375 -0.03125 -0.546875 -0.09375q-0.1875 -0.078125 -0.28125 -0.1875q-0.078125 -0.125 -0.15625 -0.296875l-2.171875 -6.15625l-10.515625 0l-2.0625 6.078125q-0.0625 0.171875 -0.15625 0.296875q-0.09375 0.125 -0.28125 0.21875q-0.1875 0.09375 -0.53125 0.125q-0.34375 0.046875 -0.890625 0.046875q-0.5625 0 -0.921875 -0.0625q-0.359375 -0.046875 -0.515625 -0.171875q-0.140625 -0.140625 -0.140625 -0.40625q0.015625 -0.265625 0.171875 -0.703125l8.484375 -23.46875q0.078125 -0.21875 0.203125 -0.34375q0.125 -0.140625 0.359375 -0.21875q0.25 -0.078125 0.625 -0.109375q0.390625 -0.03125 0.96875 -0.03125q0.625 0 1.03125 0.03125q0.421875 0.03125 0.671875 0.109375q0.25 0.078125 0.390625 0.21875q0.140625 0.140625 0.21875 0.359375l8.46875 23.484375zm-10.875 -20.734375l-0.015625 0l-4.359375 12.609375l8.796875 0l-4.421875 -12.609375zm34.535156 8.90625q0 3.28125 -0.84375 5.734375q-0.84375 2.453125 -2.453125 4.0625q-1.609375 1.609375 -3.953125 2.421875q-2.34375 0.796875 -5.578125 0.796875l-5.359375 0q-0.453125 0 -0.859375 -0.296875q-0.390625 -0.3125 -0.390625 -1.078125l0 -22.53125q0 -0.765625 0.390625 -1.0625q0.40625 -0.3125 0.859375 -0.3125l5.71875 0q3.28125 0 5.546875 0.859375q2.265625 0.84375 3.796875 2.4375q1.546875 1.59375 2.328125 3.859375q0.796875 2.265625 0.796875 5.109375zm-3.53125 0.140625q0 -2.046875 -0.515625 -3.8125q-0.5 -1.765625 -1.59375 -3.046875q-1.078125 -1.296875 -2.75 -2.015625q-1.65625 -0.734375 -4.265625 -0.734375l-3.421875 0l0 19.671875l3.453125 0q2.421875 0 4.078125 -0.609375q1.671875 -0.609375 2.78125 -1.859375q1.109375 -1.25 1.671875 -3.125q0.5625 -1.890625 0.5625 -4.46875zm27.625 11.6875q0.15625 0.421875 0.171875 0.6875q0.015625 0.265625 -0.140625 0.40625q-0.15625 0.140625 -0.53125 0.171875q-0.359375 0.046875 -0.953125 0.046875q-0.609375 0 -0.96875 -0.03125q-0.359375 -0.03125 -0.546875 -0.09375q-0.1875 -0.078125 -0.28125 -0.1875q-0.078125 -0.125 -0.15625 -0.296875l-2.171875 -6.15625l-10.515625 0l-2.0625 6.078125q-0.0625 0.171875 -0.15625 0.296875q-0.09375 0.125 -0.28125 0.21875q-0.1875 0.09375 -0.53125 0.125q-0.34375 0.046875 -0.890625 0.046875q-0.5625 0 -0.921875 -0.0625q-0.359375 -0.046875 -0.515625 -0.171875q-0.140625 -0.140625 -0.140625 -0.40625q0.015625 -0.265625 0.171875 -0.703125l8.484375 -23.46875q0.078125 -0.21875 0.203125 -0.34375q0.125 -0.140625 0.359375 -0.21875q0.25 -0.078125 0.625 -0.109375q0.390625 -0.03125 0.96875 -0.03125q0.625 0 1.03125 0.03125q0.421875 0.03125 0.671875 0.109375q0.25 0.078125 0.390625 0.21875q0.140625 0.140625 0.21875 0.359375l8.46875 23.484375zm-10.875 -20.734375l-0.015625 0l-4.359375 12.609375l8.796875 0l-4.421875 -12.609375zm30.628906 4.046875q0 1.890625 -0.625 3.421875q-0.625 1.515625 -1.796875 2.59375q-1.15625 1.078125 -2.84375 1.671875q-1.6875 0.578125 -4.03125 0.578125l-2.875 0l0 9.09375q0 0.15625 -0.09375 0.28125q-0.078125 0.109375 -0.265625 0.1875q-0.1875 0.0625 -0.515625 0.109375q-0.3125 0.0625 -0.796875 0.0625q-0.5 0 -0.828125 -0.0625q-0.3125 -0.046875 -0.515625 -0.109375q-0.1875 -0.078125 -0.265625 -0.1875q-0.078125 -0.125 -0.078125 -0.28125l0 -23.3125q0 -0.78125 0.40625 -1.109375q0.421875 -0.34375 0.921875 -0.34375l5.40625 0q0.828125 0 1.578125 0.078125q0.75 0.0625 1.765625 0.296875q1.03125 0.21875 2.09375 0.84375q1.078125 0.609375 1.8125 1.515625q0.75 0.890625 1.140625 2.078125q0.40625 1.171875 0.40625 2.59375zm-3.53125 0.28125q0 -1.546875 -0.578125 -2.578125q-0.578125 -1.046875 -1.4375 -1.546875q-0.84375 -0.515625 -1.75 -0.640625q-0.90625 -0.140625 -1.765625 -0.140625l-3.109375 0l0 10.140625l3.03125 0q1.515625 0 2.515625 -0.390625q1.015625 -0.390625 1.703125 -1.078125q0.6875 -0.703125 1.03125 -1.671875q0.359375 -0.96875 0.359375 -2.09375zm24.507812 -6.234375q0 0.375 -0.046875 0.65625q-0.03125 0.265625 -0.125 0.4375q-0.078125 0.15625 -0.21875 0.234375q-0.125 0.078125 -0.28125 0.078125l-7.109375 0l0 21.90625q0 0.15625 -0.078125 0.28125q-0.078125 0.109375 -0.28125 0.1875q-0.1875 0.0625 -0.515625 0.109375q-0.3125 0.0625 -0.796875 0.0625q-0.46875 0 -0.8125 -0.0625q-0.328125 -0.046875 -0.53125 -0.109375q-0.1875 -0.078125 -0.265625 -0.1875q-0.078125 -0.125 -0.078125 -0.28125l0 -21.90625l-7.109375 0q-0.15625 0 -0.28125 -0.078125q-0.125 -0.078125 -0.203125 -0.234375q-0.078125 -0.171875 -0.125 -0.4375q-0.046875 -0.28125 -0.046875 -0.65625q0 -0.375 0.046875 -0.65625q0.046875 -0.28125 0.125 -0.453125q0.078125 -0.1875 0.203125 -0.265625q0.125 -0.078125 0.28125 -0.078125l17.578125 0q0.15625 0 0.28125 0.078125q0.140625 0.078125 0.21875 0.265625q0.09375 0.171875 0.125 0.453125q0.046875 0.28125 0.046875 0.65625zm7.0078125 23.3125q0 0.15625 -0.078125 0.28125q-0.078125 0.109375 -0.28125 0.1875q-0.1875 0.0625 -0.515625 0.109375q-0.3125 0.0625 -0.796875 0.0625q-0.46875 0 -0.8125 -0.0625q-0.328125 -0.046875 -0.53125 -0.109375q-0.1875 -0.078125 -0.265625 -0.1875q-0.078125 -0.125 -0.078125 -0.28125l0 -24.25q0 -0.15625 0.078125 -0.265625q0.09375 -0.125 0.296875 -0.1875q0.21875 -0.078125 0.53125 -0.125q0.328125 -0.046875 0.78125 -0.046875q0.484375 0 0.796875 0.046875q0.328125 0.046875 0.515625 0.125q0.203125 0.0625 0.28125 0.1875q0.078125 0.109375 0.078125 0.265625l0 24.25zm27.890625 -12.421875q0 3.078125 -0.71875 5.546875q-0.71875 2.453125 -2.15625 4.1875q-1.4375 1.71875 -3.609375 2.65625q-2.171875 0.921875 -5.0625 0.921875q-2.84375 0 -4.921875 -0.84375q-2.078125 -0.859375 -3.4375 -2.484375q-1.359375 -1.625 -2.03125 -4.015625q-0.65625 -2.40625 -0.65625 -5.53125q0 -2.984375 0.71875 -5.421875q0.71875 -2.453125 2.15625 -4.15625q1.453125 -1.71875 3.625 -2.640625q2.171875 -0.921875 5.0625 -0.921875q2.796875 0 4.859375 0.84375q2.078125 0.828125 3.453125 2.4375q1.375 1.609375 2.046875 3.984375q0.671875 2.375 0.671875 5.4375zm-3.53125 0.234375q0 -2.140625 -0.390625 -3.984375q-0.375 -1.84375 -1.265625 -3.203125q-0.890625 -1.359375 -2.375 -2.125q-1.484375 -0.765625 -3.671875 -0.765625q-2.1875 0 -3.671875 0.828125q-1.484375 0.8125 -2.40625 2.1875q-0.921875 1.359375 -1.328125 3.1875q-0.40625 1.828125 -0.40625 3.84375q0 2.21875 0.375 4.09375q0.375 1.875 1.25 3.234375q0.875 1.359375 2.34375 2.109375q1.484375 0.75 3.71875 0.75q2.203125 0 3.703125 -0.8125q1.5 -0.828125 2.421875 -2.21875q0.921875 -1.390625 1.3125 -3.21875q0.390625 -1.84375 0.390625 -3.90625zm27.953125 11.3125q0 0.390625 -0.140625 0.671875q-0.125 0.265625 -0.328125 0.453125q-0.203125 0.171875 -0.453125 0.25q-0.25 0.078125 -0.515625 0.078125l-1.0625 0q-0.515625 0 -0.90625 -0.109375q-0.375 -0.109375 -0.71875 -0.390625q-0.328125 -0.28125 -0.671875 -0.765625q-0.34375 -0.5 -0.75 -1.265625l-7.96875 -14.375q-0.625 -1.109375 -1.265625 -2.328125q-0.640625 -1.21875 -1.1875 -2.375l-0.03125 0q0.03125 1.40625 0.046875 2.875q0.03125 1.46875 0.03125 2.90625l0 15.25q0 0.140625 -0.078125 0.265625q-0.078125 0.125 -0.265625 0.203125q-0.1875 0.0625 -0.5 0.109375q-0.296875 0.0625 -0.765625 0.0625q-0.46875 0 -0.765625 -0.0625q-0.296875 -0.046875 -0.484375 -0.109375q-0.171875 -0.078125 -0.25 -0.203125q-0.078125 -0.125 -0.078125 -0.265625l0 -23.3125q0 -0.78125 0.421875 -1.109375q0.4375 -0.34375 0.953125 -0.34375l1.59375 0q0.5625 0 0.9375 0.109375q0.390625 0.09375 0.6875 0.328125q0.3125 0.21875 0.59375 0.625q0.28125 0.390625 0.609375 1.0l6.140625 11.09375q0.5625 1.015625 1.09375 1.984375q0.53125 0.953125 1.015625 1.890625q0.484375 0.9375 0.953125 1.859375q0.484375 0.90625 0.953125 1.8125l0.03125 0q-0.046875 -1.53125 -0.0625 -3.203125q0 -1.671875 0 -3.21875l0 -13.703125q0 -0.140625 0.078125 -0.25q0.078125 -0.125 0.265625 -0.203125q0.1875 -0.09375 0.484375 -0.125q0.296875 -0.046875 0.796875 -0.046875q0.421875 0 0.734375 0.046875q0.3125 0.03125 0.484375 0.125q0.1875 0.078125 0.265625 0.203125q0.078125 0.109375 0.078125 0.25l0 23.3125zm29.332031 -5.703125q0 1.78125 -0.65625 3.171875q-0.65625 1.375 -1.828125 2.34375q-1.15625 0.96875 -2.734375 1.46875q-1.5625 0.484375 -3.375 0.484375q-1.265625 0 -2.359375 -0.21875q-1.078125 -0.21875 -1.9375 -0.53125q-0.84375 -0.3125 -1.421875 -0.640625q-0.578125 -0.328125 -0.796875 -0.5625q-0.21875 -0.234375 -0.328125 -0.59375q-0.109375 -0.375 -0.109375 -0.96875q0 -0.4375 0.03125 -0.71875q0.046875 -0.28125 0.125 -0.453125q0.078125 -0.1875 0.1875 -0.25q0.125 -0.0625 0.28125 -0.0625q0.265625 0 0.765625 0.328125q0.5 0.328125 1.28125 0.71875q0.78125 0.390625 1.875 0.734375q1.109375 0.34375 2.5625 0.34375q1.09375 0 2.0 -0.296875q0.90625 -0.296875 1.5625 -0.828125q0.65625 -0.53125 1.0 -1.3125q0.359375 -0.78125 0.359375 -1.78125q0 -1.078125 -0.5 -1.828125q-0.484375 -0.765625 -1.28125 -1.34375q-0.796875 -0.578125 -1.828125 -1.046875q-1.015625 -0.484375 -2.09375 -0.984375q-1.078125 -0.5 -2.09375 -1.109375q-1.015625 -0.609375 -1.8125 -1.421875q-0.796875 -0.828125 -1.296875 -1.921875q-0.5 -1.109375 -0.5 -2.65625q0 -1.578125 0.578125 -2.8125q0.578125 -1.25 1.59375 -2.078125q1.03125 -0.84375 2.4375 -1.28125q1.421875 -0.4375 3.0625 -0.4375q0.84375 0 1.6875 0.140625q0.859375 0.140625 1.609375 0.390625q0.75 0.25 1.328125 0.546875q0.59375 0.296875 0.78125 0.484375q0.1875 0.1875 0.234375 0.296875q0.0625 0.109375 0.09375 0.28125q0.046875 0.15625 0.0625 0.390625q0.03125 0.234375 0.03125 0.609375q0 0.34375 -0.03125 0.625q-0.03125 0.265625 -0.09375 0.453125q-0.0625 0.1875 -0.171875 0.28125q-0.09375 0.078125 -0.234375 0.078125q-0.21875 0 -0.6875 -0.265625q-0.453125 -0.28125 -1.125 -0.609375q-0.65625 -0.34375 -1.5625 -0.625q-0.90625 -0.296875 -2.03125 -0.296875q-1.0625 0 -1.84375 0.296875q-0.78125 0.28125 -1.296875 0.75q-0.5 0.46875 -0.75 1.109375q-0.25 0.640625 -0.25 1.359375q0 1.0625 0.484375 1.828125q0.484375 0.75 1.296875 1.34375q0.8125 0.578125 1.84375 1.078125q1.03125 0.484375 2.109375 0.984375q1.078125 0.5 2.109375 1.09375q1.03125 0.59375 1.84375 1.40625q0.8125 0.8125 1.3125 1.921875q0.5 1.09375 0.5 2.59375zm12.863281 -2.734375l0 9.3125q0 0.15625 -0.078125 0.28125q-0.078125 0.109375 -0.28125 0.1875q-0.1875 0.0625 -0.515625 0.109375q-0.328125 0.0625 -0.796875 0.0625q-0.484375 0 -0.8125 -0.0625q-0.328125 -0.046875 -0.53125 -0.109375q-0.203125 -0.078125 -0.28125 -0.1875q-0.078125 -0.125 -0.078125 -0.28125l0 -9.3125l-7.140625 -14.25q-0.21875 -0.453125 -0.265625 -0.703125q-0.046875 -0.265625 0.09375 -0.390625q0.140625 -0.140625 0.515625 -0.171875q0.390625 -0.046875 1.03125 -0.046875q0.59375 0 0.953125 0.046875q0.359375 0.03125 0.578125 0.109375q0.21875 0.0625 0.3125 0.1875q0.109375 0.125 0.21875 0.3125l3.484375 7.265625q0.5 1.046875 0.984375 2.1875q0.484375 1.125 1.0 2.265625l0.03125 0q0.453125 -1.109375 0.921875 -2.203125q0.484375 -1.109375 0.96875 -2.1875l3.515625 -7.296875q0.0625 -0.203125 0.171875 -0.328125q0.109375 -0.140625 0.296875 -0.203125q0.1875 -0.078125 0.515625 -0.109375q0.328125 -0.046875 0.84375 -0.046875q0.703125 0 1.09375 0.046875q0.40625 0.046875 0.5625 0.1875q0.15625 0.140625 0.109375 0.390625q-0.046875 0.25 -0.265625 0.6875l-7.15625 14.25zm30.539062 8.4375q0 0.390625 -0.140625 0.671875q-0.125 0.265625 -0.328125 0.453125q-0.203125 0.171875 -0.453125 0.25q-0.25 0.078125 -0.515625 0.078125l-1.0625 0q-0.515625 0 -0.90625 -0.109375q-0.375 -0.109375 -0.71875 -0.390625q-0.328125 -0.28125 -0.671875 -0.765625q-0.34375 -0.5 -0.75 -1.265625l-7.96875 -14.375q-0.625 -1.109375 -1.265625 -2.328125q-0.640625 -1.21875 -1.1875 -2.375l-0.03125 0q0.03125 1.40625 0.046875 2.875q0.03125 1.46875 0.03125 2.90625l0 15.25q0 0.140625 -0.078125 0.265625q-0.078125 0.125 -0.265625 0.203125q-0.1875 0.0625 -0.5 0.109375q-0.296875 0.0625 -0.765625 0.0625q-0.46875 0 -0.765625 -0.0625q-0.296875 -0.046875 -0.484375 -0.109375q-0.171875 -0.078125 -0.25 -0.203125q-0.078125 -0.125 -0.078125 -0.265625l0 -23.3125q0 -0.78125 0.421875 -1.109375q0.4375 -0.34375 0.953125 -0.34375l1.59375 0q0.5625 0 0.9375 0.109375q0.390625 0.09375 0.6875 0.328125q0.3125 0.21875 0.59375 0.625q0.28125 0.390625 0.609375 1.0l6.140625 11.09375q0.5625 1.015625 1.09375 1.984375q0.53125 0.953125 1.015625 1.890625q0.484375 0.9375 0.953125 1.859375q0.484375 0.90625 0.953125 1.8125l0.03125 0q-0.046875 -1.53125 -0.0625 -3.203125q0 -1.671875 0 -3.21875l0 -13.703125q0 -0.140625 0.078125 -0.25q0.078125 -0.125 0.265625 -0.203125q0.1875 -0.09375 0.484375 -0.125q0.296875 -0.046875 0.796875 -0.046875q0.421875 0 0.734375 0.046875q0.3125 0.03125 0.484375 0.125q0.1875 0.078125 0.265625 0.203125q0.078125 0.109375 0.078125 0.25l0 23.3125zm26.148438 -11.625q0 3.28125 -0.84375 5.734375q-0.84375 2.453125 -2.453125 4.0625q-1.609375 1.609375 -3.953125 2.421875q-2.34375 0.796875 -5.578125 0.796875l-5.359375 0q-0.453125 0 -0.859375 -0.296875q-0.390625 -0.3125 -0.390625 -1.078125l0 -22.53125q0 -0.765625 0.390625 -1.0625q0.40625 -0.3125 0.859375 -0.3125l5.71875 0q3.28125 0 5.546875 0.859375q2.265625 0.84375 3.796875 2.4375q1.546875 1.59375 2.328125 3.859375q0.796875 2.265625 0.796875 5.109375zm-3.53125 0.140625q0 -2.046875 -0.515625 -3.8125q-0.5 -1.765625 -1.59375 -3.046875q-1.078125 -1.296875 -2.75 -2.015625q-1.65625 -0.734375 -4.265625 -0.734375l-3.421875 0l0 19.671875l3.453125 0q2.421875 0 4.078125 -0.609375q1.671875 -0.609375 2.78125 -1.859375q1.109375 -1.25 1.671875 -3.125q0.5625 -1.890625 0.5625 -4.46875zm25.5625 12.359375q0 0.15625 -0.0625 0.28125q-0.0625 0.109375 -0.265625 0.203125q-0.1875 0.078125 -0.546875 0.109375q-0.34375 0.046875 -0.921875 0.046875q-0.515625 0 -0.84375 -0.046875q-0.3125 -0.03125 -0.515625 -0.125q-0.1875 -0.09375 -0.296875 -0.25q-0.109375 -0.15625 -0.1875 -0.390625l-2.3125 -5.953125q-0.421875 -1.015625 -0.859375 -1.859375q-0.4375 -0.859375 -1.046875 -1.46875q-0.59375 -0.625 -1.421875 -0.953125q-0.8125 -0.34375 -1.96875 -0.34375l-2.25 0l0 10.75q0 0.15625 -0.09375 0.28125q-0.078125 0.109375 -0.265625 0.1875q-0.1875 0.0625 -0.515625 0.109375q-0.3125 0.0625 -0.796875 0.0625q-0.5 0 -0.828125 -0.0625q-0.3125 -0.046875 -0.515625 -0.109375q-0.1875 -0.078125 -0.265625 -0.1875q-0.078125 -0.125 -0.078125 -0.28125l0 -23.390625q0 -0.765625 0.390625 -1.0625q0.40625 -0.3125 0.859375 -0.3125l5.375 0q0.953125 0 1.578125 0.0625q0.640625 0.046875 1.15625 0.09375q1.46875 0.265625 2.578125 0.8125q1.125 0.546875 1.890625 1.390625q0.765625 0.828125 1.140625 1.921875q0.390625 1.078125 0.390625 2.390625q0 1.265625 -0.34375 2.28125q-0.34375 1.0 -1.0 1.765625q-0.640625 0.765625 -1.546875 1.34375q-0.890625 0.5625 -2.0 0.953125q0.625 0.265625 1.125 0.6875q0.515625 0.421875 0.953125 1.015625q0.4375 0.578125 0.828125 1.34375q0.390625 0.765625 0.78125 1.71875l2.265625 5.5625q0.28125 0.703125 0.359375 0.984375q0.078125 0.28125 0.078125 0.4375zm-5.0625 -17.75q0 -1.484375 -0.671875 -2.5q-0.65625 -1.03125 -2.21875 -1.484375q-0.484375 -0.140625 -1.109375 -0.1875q-0.609375 -0.0625 -1.609375 -0.0625l-2.828125 0l0 8.515625l3.28125 0q1.328125 0 2.296875 -0.3125q0.96875 -0.328125 1.609375 -0.90625q0.640625 -0.578125 0.9375 -1.359375q0.3125 -0.78125 0.3125 -1.703125zm31.09375 5.328125q0 3.078125 -0.71875 5.546875q-0.71875 2.453125 -2.15625 4.1875q-1.4375 1.71875 -3.609375 2.65625q-2.171875 0.921875 -5.0625 0.921875q-2.84375 0 -4.921875 -0.84375q-2.078125 -0.859375 -3.4375 -2.484375q-1.359375 -1.625 -2.03125 -4.015625q-0.65625 -2.40625 -0.65625 -5.53125q0 -2.984375 0.71875 -5.421875q0.71875 -2.453125 2.15625 -4.15625q1.453125 -1.71875 3.625 -2.640625q2.171875 -0.921875 5.0625 -0.921875q2.796875 0 4.859375 0.84375q2.078125 0.828125 3.453125 2.4375q1.375 1.609375 2.046875 3.984375q0.671875 2.375 0.671875 5.4375zm-3.53125 0.234375q0 -2.140625 -0.390625 -3.984375q-0.375 -1.84375 -1.265625 -3.203125q-0.890625 -1.359375 -2.375 -2.125q-1.484375 -0.765625 -3.671875 -0.765625q-2.1875 0 -3.671875 0.828125q-1.484375 0.8125 -2.40625 2.1875q-0.921875 1.359375 -1.328125 3.1875q-0.40625 1.828125 -0.40625 3.84375q0 2.21875 0.375 4.09375q0.375 1.875 1.25 3.234375q0.875 1.359375 2.34375 2.109375q1.484375 0.75 3.71875 0.75q2.203125 0 3.703125 -0.8125q1.5 -0.828125 2.421875 -2.21875q0.921875 -1.390625 1.3125 -3.21875q0.390625 -1.84375 0.390625 -3.90625zm36.328125 12.1875q0 0.15625 -0.078125 0.28125q-0.078125 0.109375 -0.28125 0.1875q-0.1875 0.0625 -0.5 0.109375q-0.296875 0.0625 -0.78125 0.0625q-0.453125 0 -0.78125 -0.0625q-0.3125 -0.046875 -0.5 -0.109375q-0.1875 -0.078125 -0.265625 -0.1875q-0.078125 -0.125 -0.078125 -0.28125l0 -22.0l-0.03125 0l-9.015625 22.109375q-0.046875 0.125 -0.15625 0.234375q-0.109375 0.09375 -0.3125 0.171875q-0.203125 0.0625 -0.5 0.09375q-0.28125 0.03125 -0.671875 0.03125q-0.40625 0 -0.703125 -0.046875q-0.28125 -0.03125 -0.484375 -0.09375q-0.1875 -0.078125 -0.296875 -0.171875q-0.109375 -0.109375 -0.15625 -0.21875l-8.609375 -22.109375l-0.015625 0l0 22.0q0 0.15625 -0.078125 0.28125q-0.078125 0.109375 -0.28125 0.1875q-0.1875 0.0625 -0.5 0.109375q-0.3125 0.0625 -0.796875 0.0625q-0.46875 0 -0.78125 -0.0625q-0.3125 -0.046875 -0.5 -0.109375q-0.1875 -0.078125 -0.265625 -0.1875q-0.0625 -0.125 -0.0625 -0.28125l0 -23.234375q0 -0.828125 0.421875 -1.171875q0.4375 -0.359375 0.96875 -0.359375l2.03125 0q0.625 0 1.09375 0.125q0.46875 0.109375 0.8125 0.375q0.359375 0.25 0.59375 0.640625q0.234375 0.390625 0.40625 0.921875l7.328125 18.296875l0.09375 0l7.625 -18.25q0.203125 -0.578125 0.453125 -0.984375q0.265625 -0.421875 0.5625 -0.65625q0.3125 -0.25 0.671875 -0.359375q0.375 -0.109375 0.859375 -0.109375l2.140625 0q0.28125 0 0.546875 0.09375q0.265625 0.09375 0.453125 0.28125q0.1875 0.171875 0.296875 0.46875q0.125 0.28125 0.125 0.6875l0 23.234375zm20.777344 -0.875q0 0.359375 -0.046875 0.625q-0.03125 0.25 -0.125 0.4375q-0.09375 0.171875 -0.234375 0.25q-0.125 0.078125 -0.28125 0.078125l-12.125 0q-0.453125 0 -0.859375 -0.296875q-0.390625 -0.3125 -0.390625 -1.078125l0 -22.53125q0 -0.765625 0.390625 -1.0625q0.40625 -0.3125 0.859375 -0.3125l12.0 0q0.15625 0 0.28125 0.078125q0.125 0.078125 0.203125 0.265625q0.078125 0.171875 0.125 0.4375q0.046875 0.265625 0.046875 0.65625q0 0.34375 -0.046875 0.609375q-0.046875 0.265625 -0.125 0.4375q-0.078125 0.15625 -0.203125 0.234375q-0.125 0.078125 -0.28125 0.078125l-9.890625 0l0 7.9375l8.484375 0q0.15625 0 0.28125 0.09375q0.125 0.078125 0.203125 0.234375q0.09375 0.15625 0.125 0.4375q0.046875 0.265625 0.046875 0.640625q0 0.34375 -0.046875 0.609375q-0.03125 0.25 -0.125 0.40625q-0.078125 0.15625 -0.203125 0.21875q-0.125 0.0625 -0.28125 0.0625l-8.484375 0l0 9.046875l10.015625 0q0.15625 0 0.28125 0.078125q0.140625 0.078125 0.234375 0.25q0.09375 0.15625 0.125 0.421875q0.046875 0.265625 0.046875 0.65625z" fill-rule="nonzero"/></g></svg>